<svg xmlns="http://www.w3.org/2000/svg" width="256" height="256" viewBox="0 0 100 100"><rect width="100" height="100" rx="50" fill="#f3c563"/><path fill="#494948" d="M21.99 77q-2.25 0-3.6-1.2t-1.35-3.3V41.6q0-8.7 4.95-13.65Q26.94 23 35.64 23q4.2 0 7.91 2.06 3.71 2.07 6.41 5.89 2.63-3.9 6.34-5.93Q60.01 23 64.36 23q8.7 0 13.65 4.95 4.95 4.95 4.95 13.65v30.9q0 2.03-1.38 3.26Q80.19 77 77.94 77t-3.6-1.2q-1.35-1.2-1.35-3.3V41.6q0-5.7-2.1-8.21-2.1-2.51-6.9-2.51-4.35 0-6.71 2.77-2.37 2.78-2.37 7.95v30.9q0 2.1-1.35 3.3-1.35 1.2-3.6 1.2t-3.56-1.2q-1.31-1.2-1.31-3.3V41.6q0-5.02-2.4-7.87-2.4-2.85-6.68-2.85-4.8 0-6.9 2.51-2.1 2.51-2.1 8.21v30.9q0 2.03-1.38 3.26Q24.24 77 21.99 77Z"/></svg>