<svg><defs><font id="TimesNRCyrMT" horiz-adv-x="1024"><font-face font-family="Times New Roman Cyr" font-weight="400" units-per-em="2048" panose-1="2 2 6 3 5 4 5 2 3 4" ascent="1638" descent="-410" x-height="950" cap-height="1406" bbox="-148.998 -456 2225 1820" underline-thickness="102" underline-position="-154" unicode-range="U+0020-U+2122"/><glyph glyph-name=".notdef" horiz-adv-x="1536" d="M256 0v1280h1024V0H256zm32 32h960v1216H288V32z"/><glyph glyph-name="space" horiz-adv-x="512"/><glyph glyph-name="exclam" unicode="!" horiz-adv-x="555" d="m265 370-86 818c-5.333 52-8 85.667-8 101 0 38 10.167 72.333 30.5 103s48.5 46 84.5 46 64.5-14 85.5-42 31.5-64 31.5-108c0-20.667-3.333-56.667-10-108l-92-810h-36zm17-172c30.667 0 57-11 79-33s33-48.667 33-80-11-58-33-80-48.333-33-79-33c-31.333 0-58 11-80 33s-33 48.667-33 80 11 58 33 80 48.667 33 80 33z"/><glyph glyph-name="quotedbl" unicode="&quot;" horiz-adv-x="831" d="m209 854-55 295.001c-14.667 81.333-22 136.666-22 165.999 0 82 32.333 123 97 123 29.333 0 53.833-9.833 73.5-29.5S332 1363 332 1331c0-27.333-8.667-88-26-182l-54-295h-43zm366 .001-54 292c-16 85.333-24 142-24 170 0 81.333 34 122 102 122 32.667 0 57.5-10.833 74.5-32.5s25.5-46.167 25.5-73.5c0-58.667-6.333-120.667-19-186l-57-292h-48z"/><glyph glyph-name="numbersign" unicode="#" horiz-adv-x="1366" d="M89 1016h322l85 407h124l-84-407h421l86 407h121l-84-407h197V896h-222l-77-370h299V404H953L869 0H745l85 404H408L325 0H201l85 404H89v122h221l76 370H89v120zm422-120-78-370h422l76 370H511z"/><glyph glyph-name="dollar" unicode="$" d="m470 1493 63-.001v-64c111.333-6.667 223.333-35.667 336-87v-310h-38c-1.333 99.333-30.666 177.333-87.999 234s-127.333 88.667-210 96v-526l130-83c79.333-50.667 136.166-95.5 170.499-134.5s59.5-79.333 75.5-121 24-86.5 24-134.5c0-91.333-33-174.5-99-249.5s-166.333-117.5-301-127.5v-130h-63v130c-126 3.333-247.333 30-364 80v294h39c12-97.333 50.333-173.166 115-227.499s134.667-83.166 210-86.499v615c-242.667 130.667-364 275.667-364 435 0 85.333 31.333 159.666 94 222.999s152.667 100 270 110v64zm0-617.001v486.999c-62-6.667-112.5-30.167-151.5-70.5s-58.5-86.833-58.5-139.5c0-93.333 70-185.666 210-276.999zm63-254.001-.001-574c74.667 10.667 135.334 40 182.001 88s70 104 70 168c0 56.667-17 108-51 154s-101 100.667-201 164z"/><glyph glyph-name="percent" unicode="%" horiz-adv-x="1685" d="M1286 1436h89L396-57h-88zM42 1071c0 103.333 26 188.832 78 256.499s114.333 101.5 187 101.5c74 0 137.333-33.5 190-100.5s79-153.833 79-260.5c0-109.333-26.333-197.666-79-264.999S383 702 313 702c-76.667 0-141 34.5-193 103.5S42 963 42 1071zm119-2c0-111.333 12.501-194.833 37.501-250.5s62.5-83.5 112.5-83.5c49.333 0 86.166 27 110.499 81S458 951 458 1059c0 114-12.5 199.333-37.5 256s-62.833 85-113.5 85c-48.667 0-85.167-27.5-109.5-82.5S161 1179.667 161 1069zm949-712.001c0 110 27.333 196.998 82 260.998s115.667 96 183 96c74 0 137.333-33.5 190-100.5s79-153.5 79-259.5c0-117.333-28-207.666-84-270.999s-115.667-95-179-95c-68.667 0-131 31.833-187 95.5s-84 154.834-84 273.501zm118-3.002c0-110.667 12.501-193.833 37.501-249.5s62.5-83.5 112.5-83.5c49.333 0 86.333 27 111 81s37 135 37 243c0 113.333-12.5 198.333-37.5 255s-62.833 85-113.5 85c-48.667 0-85.334-27.5-110.001-82.5s-37-137.833-37-248.5z"/><glyph glyph-name="ampersand" unicode="&amp;" horiz-adv-x="1579" d="m1473 913 .003-37.003c-46-2-87.333-15.667-124-41s-85.667-99.333-147-222c-50-99.333-109.667-195-179-287 111.333-128.667 218.666-193 321.999-193 42 0 78.5 14.5 109.5 43.5s50.167 62.833 57.5 101.5l33-23c-20.667-100-60.667-172.667-120-218s-121-68-185-68-124 16.833-180 50.5-116 83.834-180 150.501c-138-134-292-201-462-201-98.667 0-181.834 30.333-249.501 91S67 197.332 67 290c0 90.667 31.333 176 94 256s170.667 161.667 324 245c-52 104.667-78 207.667-78 309 0 98 33.667 178.833 101 242.5S654.667 1438 746 1438c78.667 0 144-23.333 196-70s78-103.667 78-171c0-152-105-276-315-372 56-117.333 145.333-263 268-437C1081.667 518.666 1136 642.333 1136 759c0 71.333-31.667 110.333-95 117v37h432zm-800.997-24.003c151.333 74 227 172.667 227 296 0 58-14 103.167-42 135.5s-65 48.5-111 48.5c-50 0-87.5-16.167-112.5-48.5s-37.5-80.833-37.5-145.5c0-98 25.333-193.333 76-286zm155-663c-96 112-200 276-312 492-156.667-77.333-235-191.333-235-342 0-72.667 25.667-137 77-193s112-84 182-84c104 0 200 42.333 288 127z"/><glyph glyph-name="quotesingle" unicode="'" horiz-adv-x="363" d="m158 853-54 296c-15.333 82.667-23 136-23 160 0 86 32.333 129 97 129 32 0 57.333-10.333 76-31s28-45.334 28-74.001c0-27.333-8.667-88.666-26-183.999l-54-296h-44z"/><glyph glyph-name="parenleft" unicode="(" horiz-adv-x="682" d="m650 1469-.001-34.999c-242.667-138.667-364-442.667-364-912 0-476.667 121.333-782 364-916v-38c-372 209.333-558 526.666-558 951.999 0 225.333 52.333 419.5 157 582.5S487.333 1387.667 650 1469z"/><glyph glyph-name="parenright" unicode=")" horiz-adv-x="682" d="m32-432 .001 37.998c242.667 138 364 441 364 909 0 242.667-29.667 438.167-89 586.5s-151 257.833-275 328.5v39c372-209.333 558-526.666 558-951.999 0-209.333-49.833-398.666-149.5-567.999S204.667-347.333 32-432z"/><glyph glyph-name="asterisk" unicode="*" d="M500 1087c-.667 36.667-12.002 87.669-34.002 153.002-22 64.667-33 112.334-33 143.001 0 24 8 45.667 24 65s35 29 57 29c24 0 43.667-9.667 59-29s23-40.666 23-63.999c0-32-6.667-69-20-111-28-90-42.333-152-43-186 35.333 23.333 75.666 60.333 120.999 111 57.333 64.667 108 97 152 97 18 0 34.833-7.5 50.5-22.5s23.5-32.5 23.5-52.5c0-56-59-96.667-177-122-74-16.667-124.667-31-152-43 16.667-12.667 56.667-26 120-40 80-18 134.5-36.333 163.5-55s43.5-43.667 43.5-75c0-20.667-7.167-38-21.5-52s-30.5-21-48.5-21c-45.333 0-99 34-161 102-50 55.333-88 90.666-114 105.999 0-36.667 10.667-87.334 32-152.001 19.333-60.667 29-104.667 29-132s-7.5-51-22.5-71-33.833-30-56.5-30c-23.333 0-42.833 10-58.5 30s-23.5 42.667-23.5 68c0 30.667 11.333 78.334 34 143.001 19.333 57.333 30.333 105.333 33 144-28.667-14.667-72.667-54.667-132-120-54-58.667-102-88-144-88-21.333 0-39.666 7.167-54.999 21.5s-23 30.833-23 49.5c0 33.333 14.833 59.166 44.5 77.499s92.834 38.5 189.501 60.5c42.667 9.333 73.667 20.666 93 33.999-25.333 14-68.333 27.333-129 40-91.333 20-147.166 40.667-167.499 62s-30.5 43-30.5 65c0 20.667 7.833 38 23.5 52s33.167 21 52.5 21c40.667 0 85.667-25.667 135-77 71.333-74.667 119-118.334 143-131.001z"/><glyph glyph-name="plus" unicode="+" horiz-adv-x="1366" d="M140 767h478v479h129V767h480V638H747V162H618v476H140v129z"/><glyph glyph-name="comma" unicode="," horiz-adv-x="555" d="M128-303c149.333 58.667 224 146.001 224 262.001 0 14-2.5 24.333-7.5 31s-12.833 10-23.5 10c-5.333 0-14.333-3.333-27-10-22-12-40.667-18-56-18-30 0-55.667 10.833-77 32.5s-32 47.5-32 77.5c0 34 12.667 62.833 38 86.5s56 35.5 92 35.5c50.667 0 91-20.333 121-61S425 53.667 425-3c0-157.333-99-270.333-297-339v39z"/><glyph glyph-name="hyphen" unicode="-" horiz-adv-x="682" d="M87 557h508V396H87v161z"/><glyph glyph-name="hyphen" unicode="­" horiz-adv-x="682" d="M87 557h508V396H87v161z"/><glyph glyph-name="period" unicode="." horiz-adv-x="555" d="M277 199c30.667 0 57.332-10.667 79.999-32s34-48.333 34-81c0-31.333-11.167-58.166-33.5-80.499s-49.166-33.5-80.499-33.5c-30.667 0-57.167 11.167-79.5 33.5S164 54.667 164 86c0 32.667 11.333 59.667 34 81s49 32 79 32z"/><glyph glyph-name="slash" unicode="/" horiz-adv-x="575" d="M439 1469h136L136-31H0z"/><glyph glyph-name="zero" unicode="0" d="M66 713c0 221.333 45.998 396.001 137.998 524.001s191.333 192 298 192c131.333 0 239.833-68.5 325.5-205.5s128.5-309.5 128.5-517.5c0-237.333-47.167-418.333-141.5-543s-191.166-187-290.499-187c-78 0-153.167 29.333-225.5 88S169.333 205.668 128 313.001 66 553.667 66 713zm197.998 2.001c0-224.667 21.167-393.167 63.5-505.5s105.5-168.5 189.5-168.5c74 0 132.833 51.5 176.5 154.5s65.5 268.833 65.5 497.5c0 226-21 395.333-63 508s-105.333 169-190 169c-80.667 0-141.167-54.5-181.5-163.5s-60.5-272.833-60.5-491.5z"/><glyph glyph-name="one" unicode="1" d="m237 1264 332 165h38V205c0-64 12.167-108 36.5-132S713 37 779 37V0H256v37c70.667 0 117.667 12 141 36s35 68 35 132v852c0 85.333-4.667 141-14 167s-29.333 39-60 39c-30 0-64-10.667-102-32z"/><glyph glyph-name="two" unicode="2" d="M99 1046c51.333 255.333 184.332 383.001 398.999 383.001 112 0 204.333-38 277-114s109-161 109-255c0-82.667-19.5-164.834-58.5-246.501S709.999 627 595.999 499s-228.333-244-343-348h409c94.667 0 158.667 9.5 192 28.5s59.333 46.5 78 82.5h39l-100-262h-813v37c177.333 156 315.833 294.667 415.5 416S638.333 670.833 669 742.5s46 145.834 46 222.501c0 95.333-31.167 169.666-93.5 222.999s-128.833 80-199.5 80c-127.333 0-222-74-284-222H99z"/><glyph glyph-name="three" unicode="3" d="M140 1129c72 200 193.333 300 364 300 90 0 165.667-27 227-81s92-121.667 92-203c0-103.333-61-208.333-183-315 83.333-33.333 145.833-81 187.5-143S890 548.667 890 458c0-145.333-53.167-262-159.5-350S491.667-24 333-24C189.667-24 118 12 118 84c0 20 8 37.5 24 52.5s33.667 22.5 53 22.5c26.667 0 57.667-8.667 93-26 99.333-49.333 170-74 212-74 67.333 0 124.833 26.5 172.5 79.5S744 260.333 744 345c0 95.333-32.667 177.5-98 246.5S489 695 371 695h-29v37c106 18 185.667 57.333 239 118s80 128 80 202c0 68-22.833 123.5-68.5 166.5S489 1283 419 1283c-106 0-187.667-56.667-245-170z"/><glyph glyph-name="four" unicode="4" d="M683 1429h107V509h189V355H790V0H618v355H46v163zm-65-224L130 509h488v696z"/><glyph glyph-name="five" unicode="5" d="M434 1406h490.002l-76-157h-414l-94-203c190-35.333 330.833-103 422.5-203s137.5-214.667 137.5-344c0-146-56.5-269.667-169.5-371S490.669-24 350.002-24c-58.667 0-110.667 13.167-156 39.5s-68 58.5-68 96.5c0 20.667 7.167 37.667 21.5 51s30.166 20 47.499 20c30 0 66-13.667 108-41C366.334 101.333 423.667 81 475 81c72 0 139.333 32 202 96s94 140 94 228c0 126-54.167 234.833-162.5 326.5S355.667 870.667 175 874z"/><glyph glyph-name="six" unicode="6" d="m927 1429-.001-40.001c-133.333 0-257.333-57.5-372-172.5s-195-261.833-241-440.5c45.333 36 92.333 62.833 141 80.5s98.667 26.5 150 26.5c96.667 0 179.334-37 248.001-111s103-172 103-294c0-137.333-40.5-255.333-121.5-354s-180.5-148-298.5-148c-126 0-230.833 56.833-314.5 170.5S96 398.333 96 561c0 243.333 84 451.333 252 624 161.333 166.667 354.333 248 579 244zM300.999 709.999c-10-63.333-15-119.333-15-168 0-133.333 24.167-250.5 72.5-351.5s114.5-151.5 198.5-151.5c62 0 114.333 27.833 157 83.5s64 135.5 64 239.5c0 124-22.5 226.667-67.5 308s-109.5 122-193.5 122c-32.667 0-67-6.833-103-20.5s-73.667-34.167-113-61.5z"/><glyph glyph-name="seven" unicode="7" d="M214 1406h730.999l-452-1430h-118l414 1270h-414c-101.333 0-185.666-57-252.999-171l-35 14z"/><glyph glyph-name="eight" unicode="8" d="M394 716c-108 82-177.999 152.5-209.999 211.5s-48 116.5-48 172.5c0 92 34.667 169.833 104 233.5s156.333 95.5 261 95.5c105.333 0 193.666-30.833 264.999-92.5s107-130.834 107-207.501c0-118-94.333-233.667-283-347 114-88 194.5-164.167 241.5-228.5S902 416.333 902 335c0-100-37.167-184.833-111.5-254.5S623.667-24 513-24 309 10.167 233 78.5 119 229 119 325c0 66 19.5 127 58.5 183S288.667 633.333 394 716zm145.001 108c129.333 94 194 196.001 194 306.001 0 79.333-20.5 140-61.5 182s-97.5 63-169.5 63c-62 0-114.333-20.5-157-61.5s-64-92.167-64-153.5c0-84.667 62-177.334 186-278.001zm-99-144.999c-113.333-96-169.999-207.998-169.999-335.998 0-84.667 23.167-156.834 69.5-216.501s108.833-89.5 187.5-89.5c68.667 0 125.5 22.167 170.5 66.5s67.5 97.833 67.5 160.5c0 60.667-21.833 117.667-65.5 171S597.668 545.668 525.001 607.001z"/><glyph glyph-name="nine" unicode="9" d="M95 19c148.667 0 279.999 62.498 393.999 187.498s189 264.833 225 419.5c-48-34.667-95.667-60.667-143-78s-94.666-26-141.999-26c-101.333 0-185.666 38.333-252.999 115s-101 178.334-101 305.001c0 134 40.5 248.667 121.5 344s179.833 143 296.5 143c128.667 0 234.167-55.667 316.5-167s123.5-250 123.5-416c0-153.333-36-295.166-108-425.499s-169.167-237-291.5-320S282.668-24 148.001-24c-20.667 0-38.334 1.667-53.001 5v38zm633.999 678.998c7.333 57.333 11.002 110.668 11.002 160.001 0 150.667-23.167 273.167-69.5 367.5s-111.5 141.5-195.5 141.5c-64 0-117.333-26.167-160-78.5s-64-126.833-64-223.5c0-126.667 21.667-233.834 65-321.501s110.666-131.5 201.999-131.5c32.667 0 66.667 7.167 102 21.5s71.666 35.833 108.999 64.5z"/><glyph glyph-name="colon" unicode=":" horiz-adv-x="555" d="M278 972c32 0 58.834-10.832 80.501-32.499s32.5-47.834 32.5-78.501c0-30-10.833-56-32.5-78S310.667 750 280 750c-31.333 0-58 11-80 33s-33 48.333-33 79c0 29.333 10.5 55 31.5 77s47.5 33 79.5 33zm1.001-772.999c30.667 0 57.332-10.667 79.999-32s34-48.333 34-81c0-31.333-11.167-58.166-33.5-80.499s-49.166-33.5-80.499-33.5c-30.667 0-57.167 11.167-79.5 33.5s-33.5 49.166-33.5 80.499c0 32.667 11.333 59.667 34 81s49 32 79 32z"/><glyph glyph-name="semicolon" unicode=";" horiz-adv-x="555" d="M277 972c32 0 59-10.831 81-32.498s33-47.834 33-78.501-11-56.834-33-78.501-48.333-32.5-79-32.5c-31.333 0-57.833 10.833-79.5 32.5S167 830.667 167 862c0 30 10.5 55.833 31.5 77.5S245.667 972 277 972zM128-302.998c149.333 58.667 224 146.001 224 262.001 0 14-2.5 24.333-7.5 31s-12.833 10-23.5 10c-5.333 0-14.333-3.333-27-10-22-12-40.667-18-56-18-30 0-55.667 10.833-77 32.5s-32 47.5-32 77.5c0 34 12.667 62.833 38 86.5s56 35.5 92 35.5c50.667 0 91-20.333 121-61s45-89.334 45-146.001c0-157.333-99-270.333-297-339v39z"/><glyph glyph-name="less" unicode="&lt;" horiz-adv-x="1366" d="M1226 187 141 645v116l1085 456v-139L314 703l912-376V187z"/><glyph glyph-name="equal" unicode="=" horiz-adv-x="1366" d="M141 1001h1085V872H141v129zm0-468h1085V404H141v129z"/><glyph glyph-name="greater" unicode="&gt;" horiz-adv-x="1366" d="m141 1217 1085-457V644L141 187v140l912 374-912 376v140z"/><glyph glyph-name="question" unicode="?" horiz-adv-x="789" d="m410 334-37.998-.004c-1.333 26-2 45.667-2 59 0 100.667 26 207.334 78 320.001 50.667 110.667 81.667 184.834 93 222.501s17 85.834 17 144.501c0 90.667-21.167 162.5-63.5 215.5s-93.833 79.5-154.5 79.5c-40 0-77.167-14.167-111.5-42.5s-51.5-59.833-51.5-94.5c0-14 10.333-40.333 31-79 22-42 33-72.667 33-92 0-21.333-7.833-40.666-23.5-57.999s-32.834-26-51.501-26c-32 0-60 15.667-84 47s-36 66.333-36 105c0 90.667 36.5 163.834 109.5 219.501s154.167 83.5 243.5 83.5c98 0 180.333-31.667 247-95s100-138.666 100-225.999c0-64.667-12-124.334-36-179s-72-125.668-144-213C503.334 649.667 461.667 587.167 441 537.501S410 424.666 410 348v-14zm-10.998-136.004c30.667 0 57-11 79-33s33-48.667 33-80c0-30.667-11-57.167-33-79.5s-48.333-33.5-79-33.5c-31.333 0-58 11.167-80 33.5s-33 48.833-33 79.5c0 32 11.167 58.833 33.5 80.5s48.833 32.5 79.5 32.5z"/><glyph glyph-name="at" unicode="@" horiz-adv-x="1878" d="m1408 973-117.004-399.002c-62-212-93-339-93-381 0-18 6.667-35 20-51s31.333-24 54-24c56.667 0 119.167 27.333 187.5 82s125 134.834 170 240.501 67.5 215.834 67.5 330.501c0 177.333-60.167 324.166-180.5 440.499s-276.166 174.5-467.499 174.5c-252 0-458-96.167-618-288.5s-240-413.833-240-664.5c0-236 73.5-428.167 220.5-576.5s334.5-222.5 562.5-222.5c194.667 0 360.167 51.833 496.5 155.5s238.833 236.167 307.5 397.5h58c-56-181.333-164.667-328.833-326-442.5s-341.666-170.5-540.999-170.5c-248.667 0-456.167 83.833-622.5 251.5s-249.5 379.167-249.5 634.5c0 276.667 92.833 508.834 278.5 696.501s407.5 281.5 665.5 281.5c220.667 0 395.167-64.667 523.5-194s192.5-293.333 192.5-492c0-186-52.5-350.167-157.5-492.5S1362.998 46 1204.998 46c-50.667 0-88.834 11.333-114.501 34s-38.5 56.667-38.5 102c0 38 6 87.333 18 148C916.664 140 785.331 45 675.998 45c-56 0-100.167 24.167-132.5 72.5s-48.5 101.5-48.5 159.5c0 95.333 29 199.5 87 312.5s132.167 206.167 222.5 279.5 170.833 110 241.5 110c46.667 0 84.334-11.5 113.001-34.5S1207.333 887 1218 841l33 110zm-350-41.002c-87.333 0-176.667-78.834-268-236.501s-137-287.167-137-388.5c0-35.333 10.667-67.666 32-96.999s49-44 83-44c64 0 133.667 40.667 209 122s128.333 170.833 159 268.5 46 175.167 46 232.5c0 38.667-11 72.167-33 100.5s-52.333 42.5-91 42.5z"/><glyph glyph-name="A" unicode="A" horiz-adv-x="1579" d="m795 1469 556-1282c24.667-57.333 49.167-96.666 73.5-117.999s65.5-32 123.5-32v-37H971v37c98.667 0 148 33 148 99 0 20.667-9.333 52.334-28 95.001l-106 243H418l-126-287c-7.333-18-11-36.667-11-56 0-62.667 50.333-94 151-94v-37H26v37c40 4.667 73.167 19.5 99.5 44.5s56.5 76.5 90.5 154.5l541 1233h38zm-93-346L452 550h500z"/><glyph glyph-name="B" unicode="B" horiz-adv-x="1366" d="M961 722c102-19.333 180.502-61.17 235.502-125.503s82.5-137.166 82.5-218.499-24.667-152.666-74-213.999-110.5-104-183.5-128-169.167-36-288.5-36h-645v37c60.667 0 106 8 136 24s48.833 35.833 56.5 59.5 11.5 74.5 11.5 152.5v861c0 80.667-4.5 132.834-13.5 156.501s-28 42.334-57 56.001-73.5 21.167-133.5 22.5v37h564c203.333 0 348.166-36.833 434.499-110.5s129.5-161.834 129.5-264.501c0-71.333-22.833-136-68.5-194S1039.667 740.667 961 722zm-446.998 605 .002-549c75.333-14.667 133.666-22 174.999-22 73.333 0 140.166 25.5 200.499 76.5s90.5 119.833 90.5 206.5c0 90-32.833 162.667-98.5 218s-145.167 83-238.5 83c-40 0-83-4.333-129-13zm.002-645.004V98.997c55.333-18 112-27 170-27 106.667 0 189.334 29 248.001 87s88 129.667 88 215c0 99.333-38 176.666-114 231.999s-175 83-297 83c-28.667 0-60.334-2.333-95.001-7z"/><glyph glyph-name="C" unicode="C" horiz-adv-x="1473" d="m1360 1439 32.999-475.999h-33c-26 137.333-86.667 238.666-182 303.999s-198 98-308 98c-152.667 0-278.5-56-377.5-168s-148.5-284.333-148.5-517c0-204.667 54.333-359.5 163-464.5s240-157.5 394-157.5c113.333 0 213.333 28.667 300 86s150.667 121 192 191l31-20c-136.667-230.667-335.667-346-597-346C619.666-31 443.833 38.333 299.5 177S83 484.667 83 684c0 210 74.167 388.167 222.5 534.5S635.333 1438 850 1438c116.667 0 229.667-25.333 339-76 24-10.667 43-16 57-16 33.333 0 59 31 77 93h37z"/><glyph glyph-name="D" unicode="D" horiz-adv-x="1685" d="M66 1369v37h644c152.667 0 270.667-7.833 354-23.5s167.5-53 252.5-112S1470.667 1131 1524 1029s80-210.333 80-325c0-112-25.833-217-77.5-315s-122.834-177.333-213.501-238-181.667-101-273-121S841.333 0 718 0H66v37c62 0 108 7.833 138 23.5S253 96 261 120s12 75 12 153v861c0 80-4.333 131.833-13 155.5s-27.667 42.667-57 57-75 21.833-137 22.5zm429-72-.001-1195C557.666 82 631.333 72 716 72c190 0 342.167 56.5 456.5 169.5S1344 504.667 1344 692c0 193.333-58.667 348.333-176 465s-265 175-443 175c-82 0-158.667-11.667-230-35z"/><glyph glyph-name="E" unicode="E" horiz-adv-x="1366" d="m1189 1406 17.997-310.002h-36c-8.667 61.333-26.667 110-54 146s-56.166 58.833-86.499 68.5-72.833 14.5-127.5 14.5h-405v-543h362c122.667 0 184 68.333 184 205h37v-495h-37c0 84.667-16 140.667-48 168s-80.333 41-145 41h-353v-509c0-46 7.833-76 23.5-90s45.834-21 90.501-21h291c95.333 0 168.5 19 219.5 57s103.833 109 158.5 213h39l-113-351H74v37c60 0 104.833 8.167 134.5 24.5s48.334 36.333 56.001 60 11.5 74.167 11.5 151.5v861c0 80.667-4.5 132.834-13.5 156.501s-27.833 42.334-56.5 56.001-72.667 21.167-132 22.5v37h1115z"/><glyph glyph-name="F" unicode="F" horiz-adv-x="1366" d="m1283 1406 14.001-302.998h-38c-8.667 59.333-26 106.166-52 140.499s-60.667 58.666-104 72.999-110.666 21.5-201.999 21.5h-392V785h318c86 0 145.167 11 177.5 33s48.5 76.667 48.5 164h37V501h-37c-1.333 78-17 130.667-47 158s-89.667 41-179 41h-318V273c0-78 3.833-128.833 11.5-152.5s26-43.167 55-58.5 73.167-23.666 132.5-24.999v-37h-620v37c57.333 1.333 100.5 9.666 129.5 24.999s47.5 34.666 55.5 57.999 12 74.333 12 153v861c0 80-4.333 131.833-13 155.5s-26.834 42.334-54.501 56.001S146.667 1367 88 1369v37h1195z"/><glyph glyph-name="G" unicode="G" horiz-adv-x="1685" d="m1433 1438 36.999-447.995h-37c-32 117.333-98.667 208.666-200 273.999s-208.333 98-321 98c-158.667 0-292.667-58.333-402-175s-164-278-164-484c0-194.667 59.167-352.834 177.5-474.501s259.166-182.5 422.499-182.5c53.333 0 105.833 8.667 157.5 26s102.834 43 153.501 77v330c0 80.667-3.667 132.5-11 155.5s-24.833 42.167-52.5 57.5-71.167 24.333-130.5 27v36h603v-36c-56-2.667-97.167-12.334-123.5-29.001s-43.333-38.834-51-66.501-11.5-75.834-11.5-144.501V117c-126-66.667-228.5-108-307.5-124s-161.833-24-248.5-24C746.666-31 598.333.333 479 63S264.667 209.5 194 314.5 88 534.333 88 659c0 146 40.833 284.5 122.5 415.5s187.167 224.333 316.5 280 252.666 83.5 369.999 83.5c125.333 0 245.333-25.667 360-77 28.667-13.333 52.334-20 71.001-20 36.667 0 59 32.333 67 97h38z"/><glyph glyph-name="H" unicode="H" horiz-adv-x="1685" d="m496 679-.004-406c0-78.667 4-129.834 12-153.501s27-43.334 57-59.001 76-23.5 138-23.5v-37h-631v37c60 0 104.833 8 134.5 24s48.334 35.833 56.001 59.5 11.5 74.5 11.5 152.5v861c0 80.667-4.5 132.834-13.5 156.501s-27.833 42.334-56.5 56.001-72.667 21.167-132 22.5v37h631v-37c-60.667-1.333-105.667-8.666-135-21.999s-48.666-32-57.999-56-14-76.333-14-157v-369h692v369c0 80.667-4.5 132.834-13.5 156.501s-28.167 42.5-57.5 56.5-75.666 21.333-138.999 22v37h636v-37c-59.333-1.333-103.5-8.5-132.5-21.5s-48.167-31.667-57.5-56-14-76.833-14-157.5v-861c0-78 4-128.833 12-152.5s26.833-43.5 56.5-59.5 74.834-24 135.501-24v-37H978v37c62.667.667 109 8.167 139 22.5s49.333 33.666 58 57.999 13 76.166 13 155.499v406H496z"/><glyph glyph-name="I" unicode="I" horiz-adv-x="789" d="m71 1369 .002 36.999h647v-37c-63.333-.667-109.666-7.667-138.999-21s-48.833-32.166-58.5-56.499-14.5-76.833-14.5-157.5V273c0-79.333 4.167-131 12.5-155s27.666-43.5 57.999-58.5 77.5-22.5 141.5-22.5V0h-647v37c62.667.667 109.167 7.834 139.5 21.501s50.166 32.667 59.499 57 14 76.833 14 157.5v861c0 81.333-4.833 134.166-14.5 158.499s-29.334 43-59.001 56-76.167 19.833-139.5 20.5z"/><glyph glyph-name="J" unicode="J" horiz-adv-x="897" d="m214 1369 .002 36.998h629v-37c-58-2-101.333-9.667-130-23s-47.334-32-56.001-56-13-76-13-156v-635c0-111.333-11-203.666-33-276.999s-62.833-133.833-122.5-181.5-133.834-71.5-222.501-71.5c-66 0-121.167 14.167-165.5 42.5S34 76.999 34 122.999c0 29.333 10 54 30 74s44.667 30 74 30c48.667 0 88.667-32 120-96 30-59.333 60.333-89 91-89 28.667 0 48 16 58 48s15 105.333 15 220v824c0 80.667-4.5 132.834-13.5 156.501s-28 42.5-57 56.5-74.833 21.333-137.5 22z"/><glyph glyph-name="K" unicode="K" horiz-adv-x="1685" d="m1452 1406-.003-37.001c-47.333 0-95.333-12.333-144-37s-126.667-94-234-208c-125.333-132.667-242-244.334-350-335.001l526-521c89.333-88 161.333-148.5 216-181.5s114.667-49.5 180-49.5h29v-37h-726v37c82.667 0 124 24 124 72 0 24-22 57.667-66 101l-492 487v-424c0-78.667 4-129.667 12-153s26.333-42.666 55-57.999 72.667-23.666 132-24.999V0h-633v37c62.667.667 109 8 139 22s49.5 33.167 58.5 57.5 13.5 76.5 13.5 156.5v861c0 80.667-4.667 133-14 157s-28.666 42.833-57.999 56.5-75.666 20.834-138.999 21.501v37h643v-37c-62-.667-107.667-7.834-137-21.501s-48.666-32.667-57.999-57-14-76.5-14-156.5V723c83.333 64.667 195.333 164.5 336 299.5s211 229.167 211 282.5c0 40.667-41.333 62-124 64v37h514z"/><glyph glyph-name="L" unicode="L" horiz-adv-x="1366" d="M1329 376 1210-.001H87v37c62.667 0 109.5 8 140.5 24s50.5 35.833 58.5 59.5 12 74.5 12 152.5v861c0 80-4.5 131.833-13.5 155.5s-28.5 42.5-58.5 56.5-76.333 21.667-139 23v37h632v-37c-60-1.333-104.333-8.833-133-22.5s-47.334-32.5-56.001-56.5-13-76-13-156v-960c0-31.333 5.833-52.666 17.5-63.999S576.333 93 625 93h263c108.667 0 191 20.5 247 61.5s108.667 118.833 158 233.5z"/><glyph glyph-name="M" unicode="M" horiz-adv-x="2027" d="m1512 1406 426-.005v-37c-60.667-1.333-105.667-8.833-135-22.5s-48.333-32.5-57-56.5-13-75.667-13-155v-862c0-78 3.833-128.833 11.5-152.5s26.334-43.5 56.001-59.5 75.5-24 137.5-24v-37h-633v37c61.333 0 107.166 7.833 137.499 23.5s49.5 35.334 57.5 59.001 12 74.834 12 153.501v907L967-.003h-35l-547 1180v-907c0-78.667 3.833-129.667 11.5-153s26-42.666 55-57.999S524 38.332 582 37V0H88v37c61.333 0 107 8 137 24s48.833 35.833 56.5 59.5S293 195 293 273v853c0 61.333-5.333 106.333-16 135s-31.167 52.334-61.5 71.001-72.833 31-127.5 37v37h431l499-1074z"/><glyph glyph-name="N" unicode="N" horiz-adv-x="1685" d="m1656 1406 .001-37.001h-55c-72 0-117.667-11.167-137-33.5s-29-77.166-29-164.499V-16h-28l-1007 1132V280c0-78.667 6.333-132.167 19-160.5s32.667-48.666 60-60.999 69.333-19.5 126-21.5v-37h-508v37c65.333 1.333 112.666 9.333 141.999 24s48.5 36.167 57.5 64.5S310 223.667 310 335v871c-62 108.667-157.333 163-286 163v37h408l912-1038v791c0 86-8.5 142.5-25.5 169.5s-58.833 40.5-125.5 40.5h-54v37h517z"/><glyph glyph-name="O" unicode="O" horiz-adv-x="1579" d="M1503 706c0-112.667-26-225.667-78-339s-136-208-252-284S930.667-31 794-31c-191.333 0-359 70.667-503 212S75 496.666 75 703.999c0 200 69.5 372.333 208.5 517s307.167 217 504.5 217c196 0 364.167-71.167 504.5-213.5S1503 909.333 1503 706zm-253-7c0 192-39.834 349.667-119.501 473s-194.5 185-344.5 185c-148.667 0-262.167-60.5-340.5-181.5s-117.5-277.167-117.5-468.5c0-202 42.5-362.333 127.5-481s196.833-178 335.5-178c136.667 0 247.334 58.5 332.001 175.5S1250 499 1250 699z"/><glyph glyph-name="P" unicode="P" horiz-adv-x="1237" d="m472 673-.002-400.002c0-79.333 4.167-131 12.5-155s27.5-43.5 57.5-58.5 76.667-22.5 140-22.5v-37h-632v37c58.667.667 102.667 8.667 132 24s48 34.833 56 58.5 12 74.834 12 153.501v861c0 80.667-4.5 132.834-13.5 156.501s-27.667 42.334-56 56.001-71.833 21.167-130.5 22.5v37h599c180.667 0 317.334-39.5 410.001-118.5s139-171.167 139-276.5c0-102.667-41.833-192.334-125.5-269.001s-193.5-115-329.5-115c-81.333 0-171.666 15.333-270.999 46zm-.002 629-.001-558.999c68.667-26.667 126.334-40 173.001-40 90.667 0 163.167 28 217.5 84s81.5 128.667 81.5 218c0 99.333-31.5 178.166-94.5 236.499s-138.833 87.5-227.5 87.5c-47.333 0-97.333-9-150-27z"/><glyph glyph-name="Q" unicode="Q" horiz-adv-x="1579" d="M975-10c138.667-226 310.998-344.336 516.998-355.003v-37l-43-1c-96.667 0-228 32.833-394 98.5s-321.667 167.167-467 304.5c-146 46.667-267.333 134.834-364 264.501s-145 275.834-145 438.501c0 200.667 69.833 373.334 209.5 518.001s307.834 217 504.501 217c190.667 0 357.334-69.667 500.001-209s214-313.666 214-522.999c0-169.333-49.5-319.333-148.5-450S1131.667 36.667 975-10zm280 709.997c0 198-41.499 357-124.499 477s-196.5 180-340.5 180c-148.667 0-262-60.5-340-181.5s-117-277.167-117-468.5c0-201.333 42.167-361.5 126.5-480.5S655.667 47.997 795 47.997c146 0 259.167 61.5 339.5 184.5S1255 511.33 1255 699.997z"/><glyph glyph-name="R" unicode="R" horiz-adv-x="1579" d="m856 680 318-393c74-92 134.5-155.167 181.5-189.5S1456.667 43 1518 37V0h-367L619 660c-10-1.333-21.333-2-34-2-47.333 0-80.333.667-99 2V273c0-78 3.833-128.833 11.5-152.5s25.834-43.167 54.501-58.5 72.334-23.666 131.001-24.999v-37h-614v37c56 2 98.167 10.167 126.5 24.5s46.833 33.333 55.5 57 13 75.167 13 154.5v861c0 76-3.333 125.167-10 147.5s-23.334 41.833-50.001 58.5-63.334 26-110.001 28l-25 1v37h645c175.333 0 302.333-36.833 381-110.5s118-158.834 118-255.501c0-178-119-298-357-360zm-370 618V729c316 0 474 101.333 474 304 0 80-29.167 150.333-87.5 211S738 1335 644 1335c-50 0-102.667-12.333-158-37z"/><glyph glyph-name="S" unicode="S" horiz-adv-x="1131" d="m943 1436-.001-465.001h-38c-14 108-56 199-126 273s-153 111-249 111c-69.333 0-127.5-20.167-174.5-60.5s-70.5-88.833-70.5-145.5c0-42 14.667-81.667 44-119 28.667-38 105-93.333 229-166 80-46.667 154-92 222-136s126-96.833 174-158.5 72-132.5 72-212.5c0-116.667-44.833-210.5-134.5-281.5s-189.167-106.5-298.5-106.5c-72.667 0-171.334 20.667-296.001 62-25.333 8-47 12-65 12-36 0-63.667-24.667-83-74h-38v474h38c28.667-136 80.334-235.5 155.001-298.5s157.667-94.5 249-94.5c79.333 0 144.333 20.833 195 62.5s76 95.167 76 160.5c0 55.333-22 110.333-66 165-44.667 54-138.667 121.667-282 203-145.333 82-243.666 152.667-294.999 212-51.333 58.667-77 132.334-77 221.001 0 102 38.333 188.167 115 258.5S390 1438 502 1438c64 0 148.333-20 253-60 26.667-10.667 50-16 70-16 35.333 0 62 24.667 80 74h38z"/><glyph glyph-name="T" unicode="T" horiz-adv-x="1366" d="M62 1406h1238l20-318h-40c-12 92.667-42.333 154-91 184s-118 45-208 45H792V273c0-78 3.833-128.833 11.5-152.5S829.834 77 859.501 61s75.834-24 138.501-24V0h-631v37c60 0 105 8.167 135 24.5s48.667 36.333 56 60 11 74.167 11 151.5v1044h-182c-74.667 0-128.667-5-162-15s-64.166-34.167-92.499-72.5-44.5-85.5-48.5-141.5h-37z"/><glyph glyph-name="U" unicode="U" horiz-adv-x="1685" d="m65 1369 .001 36.997h628v-37c-56-1.333-98.333-9.666-127-24.999S519.167 1309.332 511.5 1286s-11.5-74-11.5-152V510c0-88.667 3.5-152.834 10.5-192.5s26.667-81.168 59-124.5 75.833-77 130.5-101 120.334-36 197.001-36c105.333 0 193.166 20.666 263.499 62s117.833 96.5 142.5 165.5 37 162.166 37 279.5v571c0 80.666-4.5 132.833-13.5 156.5s-28.333 42.5-58 56.5-75.834 21.333-138.501 22v37h516v-37c-66 0-114.333-7.167-145-21.5s-50.334-33.5-59.001-57.5-13-76-13-156V563c0-124-15-226.5-45-307.5s-90.833-149-182.5-204S1001.331-31 875.998-31c-108.667 0-204.167 14.333-286.5 43S443.332 79.5 397.999 128.5s-76.666 104-93.999 165-26 135.833-26 224.5v616c0 80.667-4.667 133-14 157s-28.833 42.833-58.5 56.5S129 1368.333 65 1369z"/><glyph glyph-name="V" unicode="V" horiz-adv-x="1473" d="m26 1406 597-.002v-37c-68.667 0-111.667-8.667-129-26s-26-39.333-26-66c0-26 15.667-77.667 47-155l316-779 297 789c26.667 70.667 40 116.334 40 137.001 0 63.333-48.333 96.666-145 99.999v37h428v-37c-52-1.333-97.167-26.666-135.5-75.999S1236.667 1162.333 1194 1049L785-31h-38L281 1122c-39.333 98-74.833 163-106.5 195s-81.167 49.333-148.5 52v37z"/><glyph glyph-name="W" unicode="W" horiz-adv-x="2027" d="M17 1406h538v-37c-83.333-2.667-125-33.334-125-92.001 0-26 12.667-73.667 38-143l279-764 226 628-72 186c-30 79.333-57 129.333-81 150s-62 32.334-114 35.001v37h558v-37c-92-6.667-138-39.334-138-98.001 0-40.667 11.333-91 34-151l287-750 271 764c24.667 70 37 117.333 37 142 0 62-49.333 93-148 93v37h408v-37c-44-1.333-80.833-19.333-110.5-54s-62.5-102.667-98.5-204l-402-1142h-40l-342 901-327-901h-34l-439 1196c-32.667 88.667-60 144.334-82 167.001s-63 35-123 37v37z"/><glyph glyph-name="X" unicode="X" horiz-adv-x="1579" d="m28 1406 659.002-.001v-37c-94.667 0-142-26.333-142-79 0-24.667 15.667-58.667 47-102l239-331 288 348c26 31.333 39 59.333 39 84 0 53.333-46.667 80-140 80v37h485v-37c-48.667 0-87.334-7-116.001-21s-55-33.5-79-58.5-90-100.833-198-227.5l-227-278 316-439c102-141.333 171.833-228 209.5-260s85.834-48 144.501-48v-37h-624v37c91.333 0 137 25 137 75 0 28.667-17.667 66.667-53 114l-23 31-254 353-334-402c-32-39.333-48-70.666-48-93.999 0-50 45-75.667 135-77V0h-461v37c44 .667 87.667 16.167 131 46.5s96.666 82.833 159.999 157.5l368 441-324 445c-75.333 104-133.833 170.167-175.5 198.5S92.667 1368.333 28 1369v37z"/><glyph glyph-name="Y" unicode="Y" horiz-adv-x="1579" d="M1551 1406v-37c-64.667 0-118.5-16.667-161.5-50s-96.833-100.333-161.5-201L898 603V275c0-81.333 4.5-134.166 13.5-158.499s28.667-43.666 59-57.999 78.5-21.5 144.5-21.5v-37H462v37c64 .667 111.333 8 142 22s50.667 33.167 60 57.5 14 77.166 14 158.499v316l-385 572c-73.333 108-122.833 169.333-148.5 184s-66.5 22-122.5 22v37h623v-37c-107.333 0-161-19-161-57 0-30.667 22.667-80.334 68-149.001l308-465 268 420c64.667 100.667 97 164.667 97 192 0 39.333-46 59-138 59h-12v37h476z"/><glyph glyph-name="Z" unicode="Z" horiz-adv-x="1366" d="m195 1406 1113-.001-957-1319h594c98.667 0 171.834 15.333 219.501 46s90.167 111.334 127.5 242.001h33l-70-375h-1211v37l932 1287h-460c-134.667 0-218.5-22.333-251.5-67s-53.5-110.667-61.5-198h-37z"/><glyph glyph-name="bracketleft" unicode="[" horiz-adv-x="555" d="M526 1442v-88H282V-317h244v-90H121v1849h405z"/><glyph glyph-name="backslash" unicode="\" horiz-adv-x="575" d="M136 1469 575-31H439L0 1469h136z"/><glyph glyph-name="bracketright" unicode="]" horiz-adv-x="555" d="M29-407v88h244v1671H29v90h405V-407H29z"/><glyph glyph-name="asciicircum" unicode="^" horiz-adv-x="1194" d="m149 688 411 718h82l404-718H887l-295 512-290-512H149z"/><glyph glyph-name="underscore" unicode="_" d="M-12-154h1048v-102H-12v102z"/><glyph glyph-name="grave" unicode="`" horiz-adv-x="682" d="M508 1125h-35l-299 344h228z"/><glyph glyph-name="a" unicode="a" d="m989 179 .001-51.999c-82-103.333-158.667-155-230-155-84 0-127.333 57.333-130 172-59.333-57.333-116.833-100.333-172.5-129s-109.5-43-161.5-43c-60 0-110.5 22.667-151.5 68s-61.5 100-61.5 164c0 85.333 41.833 158.833 125.5 220.5s224.167 126.167 421.5 193.5c-.667 94.667-3.834 159.5-9.501 194.5s-21.834 63.333-48.501 85-68.667 32.5-126 32.5c-45.333 0-83-12.333-113-37s-45-58-45-100c0-9.333.667-20.333 2-33 .667-9.333 1-18 1-26 0-57.333-26.667-86-80-86-59.333 0-89 28.333-89 85 0 67.333 33 124 99 170s154.333 69 265 69c82 0 146.833-11.5 194.5-34.5s78.834-53.833 93.501-92.5S795 746.667 795 666V190c0-64.667 20-97 60-97 39.333 0 84 28.667 134 86zm-359.999 11.001-.003 373c-152-62.667-252.667-114.5-302-155.5s-74-91.5-74-151.5c0-46 14.833-85.333 44.5-118s66.834-49 111.501-49c34.667 0 70.334 8.5 107.001 25.5s74.334 42.167 113.001 75.5z"/><glyph glyph-name="b" unicode="b" horiz-adv-x="1131" d="m44 1350 286.997 118.999h36v-684c42 62.667 88.833 109.5 140.5 140.5s107.834 46.5 168.501 46.5c103.333 0 193-44.5 269-133.5s114-198.5 114-328.5c0-156-51.333-284.667-154-386s-220.667-152-354-152c-55.333 0-112.166 10.333-170.499 31S262.333 54.333 201 95v1045c0 70.667-6.667 119-20 145s-39.333 39-78 39c-14.667 0-30-3-46-9zm322.997-626.001V150c34-36.667 69.833-64.334 107.5-83.001s77.5-28 119.5-28c87.333 0 157.666 41.333 210.999 124s80 174.667 80 276c0 104-27 194.833-81 272.5s-126.667 116.5-218 116.5c-38 0-75.167-8.667-111.5-26s-72.166-43.333-107.499-78z"/><glyph glyph-name="c" unicode="c" horiz-adv-x="897" d="M874 354c-24.667-105.333-73.331-195.333-145.998-270s-157-112-253-112c-128 0-230.167 48.167-306.5 144.5S54.002 328.333 54.002 463c0 152.667 44.833 275.667 134.5 369s200.5 140 332.5 140c91.333 0 168.833-23.167 232.5-69.5s95.5-97.166 95.5-152.499c0-23.333-9.333-42.5-28-57.5s-42.334-22.5-71.001-22.5c-62 0-98 33.667-108 101-6.667 46.667-21.667 81.667-45 105-23.333 22.667-60.333 34-111 34-84.667 0-150.5-33.833-197.5-101.5s-70.5-151.5-70.5-251.5c0-124.667 29.667-225.834 89-303.501S446.667 137 548 137c148 0 245.667 77.333 293 232z"/><glyph glyph-name="d" unicode="d" horiz-adv-x="1131" d="m602 1343 294.001 125.999h35v-1183c0-70 6.5-116.333 19.5-139s35.5-34 67.5-34c19.333 0 40 5 62 15l14-35-328-121v139c-43.333-46-89-80.667-137-104s-98.333-35-151-35c-109.333 0-205 45.833-287 137.5s-123 202.167-123 331.5c0 142.667 48.167 266.834 144.5 372.501s208.5 158.5 336.5 158.5c37.333 0 74-5.833 110-17.5s71.667-29.5 107-53.5v259c0 60-6.333 102.167-19 126.5S711.667 1323 679 1323c-17.333 0-37.333-4.333-60-13zM766.001 179.999v447.999c0 102-27 175.5-81 220.5s-108.667 67.5-164 67.5c-72 0-135.333-38.833-190-116.5s-82-172.5-82-284.5c0-120.667 32.167-222.167 96.5-304.5s140.5-123.5 228.5-123.5c38 0 73 7.833 105 23.5s61 38.834 87 69.501z"/><glyph glyph-name="e" unicode="e" horiz-adv-x="897" d="M848 334c-22-112.667-68.169-201.166-138.502-265.499s-151.5-96.5-243.5-96.5c-110 0-204.333 42.833-283 128.5s-118 206.5-118 362.5c0 151.333 38.333 274 115 368s179.334 141 308.001 141c108.667 0 195.834-35.5 261.501-106.5s98.5-161.833 98.5-272.5H205c-.667-16.667-1-29.334-1-38.001 0-102 31-198 93-288s144-135 246-135c131.333 0 222.333 73 273 219zM635.998 656.001c-2 78-21.833 138-59.5 180s-85.5 63-143.5 63c-58.667 0-109-22-151-66s-66.333-103-73-177h427z"/><glyph glyph-name="f" unicode="f" horiz-adv-x="682" d="m74 950 132.001.002v52c0 87.333 10.667 163.166 32 227.499s64 120.333 128 168 135.333 71.5 214 71.5c65.333 0 125-16.833 179-50.5s81-73.5 81-119.5c0-20.667-8.5-39.667-25.5-57s-36.167-26-57.5-26c-34 0-69.333 27-106 81-44.667 66-92.667 99-144 99-31.333 0-58-9.167-80-27.5s-36.667-41.333-44-69-11-85.834-11-174.501V950h193v-63h-193V227c0-81.333 12-133.333 36-156s68.333-34 133-34V0h-491v37c59.333.667 100.166 13 122.499 37S206 149 206 227v660H74v63z"/><glyph glyph-name="g" unicode="g" d="m730 913 219.999-.001c28 0 42-11 42-33v-37c0-18-12-27-36-27h-147c35.333-52.667 53-110.667 53-174 0-96.667-33.667-175.334-101-236.001s-151.666-91-252.999-91c-44.667 0-89.667 6.667-135 20-27.333-24-48-46.167-62-66.5s-21-38.833-21-55.5c0-24 14.833-40.167 44.5-48.5s82.167-12.5 157.5-12.5l170 1c113.333 0 195.666-21.333 246.999-64 50.667-43.333 76-92.333 76-147 0-108-56-197.667-168-269s-233-107-363-107c-103.333 0-194 20.667-272 62s-117 84.333-117 129c0 26.667 10.833 56.334 32.5 89.001s76.167 92.667 163.5 180c-69.333 22.667-104 56.334-104 101.001 0 32.667 13.833 68.167 41.5 106.5S267.333 312.666 322 355.999c-58 30-101.5 68.333-130.5 115S148 572.333 148 635c0 92 34.333 171.167 103 237.5S409 972 519 972c40 0 77.5-4.833 112.5-14.5S699.333 933 730 913zM318.999 722.999c0-96 19.332-179.5 57.999-250.5s91.334-106.5 158.001-106.5c45.333 0 81.833 21.5 109.5 64.5s41.5 97.833 41.5 164.5c0 78-19.167 151-57.5 219s-89.833 102-154.5 102c-48 0-85.833-18.833-113.5-56.5s-41.5-83.167-41.5-136.5zm-11.001-707C245.331-50.668 214-109.665 214-160.998c0-50.667 35.333-88.334 106-113.001s150.667-37 240-37c105.333 0 191.666 20 258.999 60s101 88.333 101 145c0 33.333-16 58.666-48 75.999s-125.333 27.166-280 29.499-249.334 7.833-284.001 16.5z"/><glyph glyph-name="h" unicode="h" horiz-adv-x="1131" d="m367 1469 .001-696.003c48 63.333 102 112.333 162 147s115.667 52 167 52c56.667 0 105.5-17.167 146.5-51.5s67.833-77.166 80.5-128.499 19-123.333 19-216v-350c0-68.667 8.5-117.334 25.5-146.001s60.167-43 129.5-43v-37h-476v37c68.667.667 111.167 15.834 127.5 45.501s24.5 77.5 24.5 143.5v392c0 57.333-3.167 99.333-9.5 126s-23.833 50.834-52.5 72.501-61.334 32.5-98.001 32.5c-27.333 0-59.666-6.833-96.999-20.5s-87-49.167-149-106.5v-496c0-80 11.667-131.5 35-154.5s66.666-34.5 129.999-34.5v-37H51v37c55.333.667 93.833 13.334 115.5 38.001S199 150 199 226v863c0 100.667-5.333 164.667-16 192s-35.334 41-74.001 41c-17.333 0-36.666-3.667-57.999-11l-11 35 291 123h36z"/><glyph glyph-name="i" unicode="i" horiz-adv-x="555" d="M281 1474c28.667 0 53.334-10.169 74.001-30.502s31-45.166 31-74.499c0-30-10.333-55.167-31-75.5s-45.334-30.5-74.001-30.5c-29.333 0-54.333 10.333-75 31s-31 45.667-31 75c0 28.667 10.333 53.334 31 74.001s45.667 31 75 31zM48 864.998l283.999 107h35v-745c0-74.667 10.167-124 30.5-148s57.5-38 111.5-42v-37h-461v37c50.667 1.333 89.834 11.833 117.501 31.5s41.5 72.5 41.5 158.5v453c0 56-7.5 96.333-22.5 121s-41.5 37-79.5 37c-16 0-31.333-3.333-46-10z"/><glyph glyph-name="j" unicode="j" horiz-adv-x="555" d="M301 1475c28.667 0 53.5-10.333 74.5-31s31.5-45.667 31.5-75-10.5-54.333-31.5-75-45.833-31-74.5-31-53.5 10.333-74.5 31-31.5 45.667-31.5 75 10.5 54.333 31.5 75 45.833 31 74.5 31zM60 868l298.003 104h35V48c0-160.667-30.167-281.167-90.5-361.5S151.67-434 31.003-434c-48.667 0-90.834 9.333-126.501 28s-53.5 43.667-53.5 75c0 22.667 8.667 42.5 26 59.5s37.333 25.5 60 25.5c33.333 0 68-16.333 104-49 41.333-38 71.666-57 90.999-57 39.333 0 65 18.667 77 56s18 121.333 18 252v721c0 110.667-31.333 166-94 166-16.667 0-37.334-3.667-62.001-11z"/><glyph glyph-name="k" unicode="k" horiz-adv-x="1131" d="m54 1356 292 113h35V533l290 278c24.667 23.333 37 43 37 59 0 28.667-25.667 43-77 43v37h419v-37c-83.333-.667-149.5-17.334-198.5-50.001s-86.167-61-111.5-85l-203-192 256-333c70.667-92 125.5-151 164.5-177s84.833-39 137.5-39v-37H639v37c43.333 2 65 15 65 39 0 18.667-11 42.334-33 71.001L381 523V227c0-68 8.333-116.667 25-146s60.334-44 131.001-44V0h-483v37c60 .667 101.167 13 123.5 37s33.5 75 33.5 153v897c0 88-6 144.333-18 169s-37.333 37-76 37c-14.667 0-31.334-3-50.001-9z"/><glyph glyph-name="l" unicode="l" horiz-adv-x="555" d="m371 1469-.001-1243c0-77.333 10.5-127.666 31.5-150.999s55.833-36 104.5-38v-37h-461v37c71.333.667 115.333 16.5 132 47.5s25 78.167 25 141.5v883c0 68.667-1.5 113.167-4.5 133.5s-12.333 38.666-28 54.999-36.167 24.5-61.5 24.5c-15.333 0-31.666-4-48.999-12l-14 36 290 123h35z"/><glyph glyph-name="m" unicode="m" horiz-adv-x="1685" d="m359 972-.002-195.002 36 37c102 105.333 196.333 158 283 158 63.333 0 114.833-17.167 154.5-51.5s67.5-86.166 83.5-155.499c50 69.333 103.333 121.166 160 155.499s116.334 51.5 179.001 51.5c52 0 99-14.833 141-44.5s70.833-69.667 86.5-120 23.5-118.5 23.5-204.5v-375c0-68.667 8.5-117.667 25.5-147s60.167-44 129.5-44v-37h-484v37c62 .667 104.333 12.834 127 36.501s34 75.167 34 154.5v443c.667 54.667-14.5 98.167-45.5 130.5s-70.5 48.5-118.5 48.5c-80.667 0-157-35.667-229-107l-21-19c.667-3.333 1.334-10.666 2.001-21.999 4-32 6-67.333 6-106V228c0-68.667 8.5-117.667 25.5-147S1018 37 1088 37V0H602v37c62.667.667 105.5 12.834 128.5 36.501s34.5 75.167 34.5 154.5v368c0 86-12.833 149.667-38.5 191s-68.834 62-129.501 62c-71.333 0-142.666-34-213.999-102l-24-23v-496c0-72 9.333-121.833 28-149.5s59.667-41.5 123-41.5v-37H32v37c61.333.667 103.333 13 126 37s34 75.333 34 154v432c0 64-7.5 110-22.5 138s-41.5 42-79.5 42c-12 0-25.667-2-41-6-8-2.667-13.667-4.334-17-5.001l-15 36 307 107h35z"/><glyph glyph-name="n" unicode="n" horiz-adv-x="1131" d="M367 972V772c66 74.667 122.667 126.667 170 156s99 44 155 44c76 0 136.667-28.333 182-85 45.333-57.333 68-140.333 68-249V227c0-72.667 10.5-122 31.5-148S1032 39 1086 37V0H607v37c63.333 0 107 12.333 131 37s36 75.667 36 153v401c0 74-13.833 129.833-41.5 167.5S664.333 852 611 852c-40 0-80.333-11.333-121-34s-81.667-56.667-123-102V227c0-71.333 10.5-120.5 31.5-147.5S460.667 38.333 522 37V0H52v37c60 1.333 99.667 15.833 119 43.5S200 157 200 227v461c0 100-27.667 150-83 150-19.333 0-41-5.667-65-17l-14 39 294 112h35z"/><glyph glyph-name="o" unicode="o" horiz-adv-x="1131" d="M1039 505c0-140.667-48.167-264.667-144.5-372S682.667-28 548-28c-122 0-228.667 45.833-320 137.5S91 314 91 448c0 132 46.667 252.333 140 361s210.333 163 351 163c123.333 0 230.333-46.5 321-139.5s136-202.167 136-327.5zm-185-85c0 129.333-29.002 241.834-87.002 337.501s-135.667 143.5-233 143.5c-79.333 0-142.166-33.167-188.499-99.5s-69.5-156.833-69.5-271.5c0-129.333 29.333-243 88-341s135.334-147 230.001-147c75.333 0 137.5 33.667 186.5 101S854 302.667 854 420z"/><glyph glyph-name="p" unicode="p" horiz-adv-x="1131" d="M371 972V754.999c46.667 72.667 97.334 127 152.001 163s113 54 175 54c96 0 182-43.667 258-131s114-200 114-338c0-154-48-281-144-381s-204-150-324-150c-46.667 0-89.334 7.333-128.001 22S401 30.333 371 59v-261c0-76.667 12-127.834 36-153.501s70.333-38.5 139-38.5v-38H35v38c65.333 0 110 11.833 134 35.5S205-282.667 205-202v861c0 72-7.167 119.5-21.5 142.5S146.667 836 116 836c-17.333 0-39-4-65-12l-16 36 301 112h35zm0-280.001.001-352.002c0-78.667 6.833-136.167 20.5-172.5s40-67.666 79-93.999 83.167-39.5 132.5-39.5c88.667 0 159.167 36 211.5 108s78.5 168 78.5 288c0 112.667-25.333 207-76 283s-119.334 114-206.001 114c-43.333 0-85-11.167-125-33.5s-78.333-56.166-115-101.499z"/><glyph glyph-name="q" unicode="q" horiz-adv-x="1131" d="m934 972 .001-1176c0-68.667 8.167-117.5 24.5-146.5S1018.667-394 1090-394v-38H595v38c49.333 0 84 3.667 104 11s36.167 23.333 48.5 48S766-266.666 766-203.999v358c-50-60.667-102-106.167-156-136.5s-109.667-45.5-167-45.5c-93.333 0-177.833 40.833-253.5 122.5S76 291.668 76 441.001c0 156 47.833 283.5 143.5 382.5s207.834 148.5 336.501 148.5c40 0 78.833-5.333 116.5-16s74.5-27 110.5-49c45.333 16 83.666 37.667 114.999 65h36zM766.001 213.999 766 665.998c0 57.333-7 101.833-21 133.5s-39.833 58.5-77.5 80.5-80.5 33-128.5 33c-90 0-161.167-37.5-213.5-112.5S247 627.665 247 506.998c0-113.333 27.667-207.166 83-281.499s130-111.5 224-111.5c45.333 0 82.333 7 111 21s60.334 38 95.001 72z"/><glyph glyph-name="r" unicode="r" horiz-adv-x="789" d="m378 972-.002-205c41.333 68.667 83.833 120 127.5 154s88.167 51 133.5 51c32 0 60.667-12.333 86-37s38-52 38-82c0-20.667-9-40.5-27-59.5s-39.333-28.5-64-28.5c-25.333 0-54 13.667-86 41-24 20.667-42.667 31-56 31-25.333 0-50.666-11.667-75.999-35S403.333 743.667 378 697V228c0-80.667 12.5-132.667 37.5-156S488.333 37 559 37V0H56v37c57.333 2 97.5 14.833 120.5 38.5S211 150 211 228v435c0 77.333-8.5 124.833-25.5 142.5S147.333 832 122 832c-17.333 0-35.333-4-54-12l-12 34 284 118h38z"/><glyph glyph-name="s" unicode="s" horiz-adv-x="789" d="M635 950V660.998h-37c-9.333 71.333-35.5 131.5-78.5 180.5s-94.167 73.5-153.5 73.5c-48 0-87.5-12-118.5-36s-46.5-52-46.5-84c0-44 15.333-81.333 46-112 30.667-31.333 81-64 151-98 115.333-56 195.333-107.667 240-155 44.667-48 67-106.333 67-175 0-91.333-33.5-161.333-100.5-210s-135.5-73-205.5-73c-43.333 0-97.333 9.667-162 29-32.667 9.333-55 14-67 14-14.667 0-27.334-5-38.001-15h-42v320h35c14-96 47.5-167.667 100.5-215s111.167-71 174.5-71c41.333 0 78.166 13.667 110.499 41s48.5 60.333 48.5 99c0 46.667-15.667 86.667-47 120-32 32.667-100.333 78.334-205 137.001-102 56.667-164.667 105.334-188 146.001-23.333 40-35 81.667-35 125 0 78 27.167 142.5 81.5 193.5s121.833 76.5 202.5 76.5c32.667 0 71.334-6.333 116.001-19 34.667-10 59-15 73-15 16.667 0 30.334 4 41.001 12h37z"/><glyph glyph-name="t" unicode="t" horiz-adv-x="682" d="m371 1252 .002-302.001h218v-60h-218v-626c0-58 9.833-101.5 29.5-130.5s49.167-43.5 88.5-43.5c23.333 0 45.666 6.667 66.999 20s41.666 33 60.999 59h41c-34-65.333-72.667-114.5-116-147.5s-91.333-49.5-144-49.5c-64 0-112.167 22.667-144.5 68s-48.5 113.333-48.5 204v646H60v39C200 985.666 293 1093.333 339 1252h32z"/><glyph glyph-name="u" unicode="u" horiz-adv-x="1131" d="m37 950 337.998.003v-635c0-70.667 13.167-123.834 39.5-159.501s65.833-53.5 118.5-53.5c41.333 0 82.333 10.5 123 31.5s80.667 52.5 120 94.5v543c0 46.667-6.5 77.667-19.5 93s-25.667 27.166-38 35.499-46.166 12.833-101.499 13.5v37h328V277c0-62.667 7-106.334 21-131.001s37-37 69-37c18.667 0 41.334 5.667 68.001 17V86L814-28h-38v204C718.667 108 663 57 609 23S502.333-28 451-28c-55.333 0-103.333 16.5-144 49.5s-67.167 72.333-79.5 118S209 248.667 209 330v441c0 50.667-10.5 87-31.5 109S118.667 913 64 913H37v37z"/><glyph glyph-name="v" unicode="v" d="m29 950 426.002-.002v-37c-68-4-102-31.667-102-83 0-30 12.333-74 37-132l190-466 218 541c14 34 21 59 21 75 0 40-35 61.667-105 65v37h286v-37c-32-3.333-55.833-14.166-71.5-32.499s-37.5-63.833-65.5-136.5l-311-772h-40l-275 675c-44.667 109.333-79.834 180.333-105.501 213S71.667 910.333 29 913v37z"/><glyph glyph-name="w" unicode="w" horiz-adv-x="1473" d="m29 950 374 .002v-37c-57.333-3.333-86-25-86-65 0-22.667 6.667-52.667 20-90l192-528 199 441-46 123c-20 51.333-40 84-60 98s-51 21-93 21v37h436v-37c-78 0-117-24.667-117-74 0-17.333 4.667-38.666 14-63.999l200-531 202 531c10 27.333 15 49 15 65 0 47.333-36 71.666-108 72.999v37h281v-37c-24-.667-45-12.5-63-35.5s-41.333-72.167-70-147.5l-287-758h-39l-230 609-270-609h-39l-288 786c-24 65.333-45.833 107.166-65.5 125.499S57 911.667 29 913v37z"/><glyph glyph-name="x" unicode="x" d="m46 950 428.001-.001v-37c-52-3.333-78-20.333-78-51 0-18 13.333-48 40-90l87-138 98 145c24 36 36 63 36 81 0 32.667-25 50.334-75 53.001v37h315v-37c-70-.667-148.333-65-235-193l-100-148 160-253C777.334 231 825.667 162.5 867 113.5S949.333 39 990 37V0H571v37c58 0 87 15.667 87 47 0 20.667-19.667 62.667-59 126L463 426 288 167c-22.667-34-34-60.333-34-79 0-34 30.333-51 91-51V0H35v37c59.333 4 128.333 64.333 207 181l182 269-161 253c-36 56.667-69.167 99.5-99.5 128.5S94 912.333 46 913v37z"/><glyph glyph-name="y" unicode="y" d="m34 950 424.003.001v-37c-40.667-1.333-69.334-7.5-86.001-18.5s-25-29.5-25-55.5 6.333-53.667 19-83l232-518 159 433c39.333 105.333 59 165.666 59 180.999 0 34.667-31.667 55-95 61v37h271v-37c-30.667-4.667-54.167-19.5-70.5-44.5s-44.833-90.833-85.5-197.5l-258-699c-58.667-159.333-116.834-266.833-174.501-322.5S281.667-434 211-434c-40 0-72.833 10.333-98.5 31S74-355.666 74-322.999c0 28 10 50.833 30 68.5s45.667 26.5 77 26.5c20 0 51.333-9 94-27 18.667-7.333 34.334-11 47.001-11 59.333 0 114.666 68 165.999 204l32 83-330 735C144.667 857.334 92.667 909.667 34 913v37z"/><glyph glyph-name="z" unicode="z" horiz-adv-x="895" d="M96 950h761.999v-37l-609-846h344c83.333 0 140 17.5 170 52.5s45.333 89.833 46 164.5h38l-13-284h-805v37l605 842h-331c-60 0-101.667-11.833-125-35.5S138.333 771.333 129 698H96v252z"/><glyph glyph-name="braceleft" unicode="{" horiz-adv-x="981" d="m840-360-.001-34.999c-108.667 12.667-198.5 57.167-269.5 133.5s-106.5 159.833-106.5 250.5c0 49.333 7 102.666 21 159.999 16.667 68.667 25 121.667 25 159 0 44.667-20.167 88.5-60.5 131.5S353.333 508.333 282 517v40c72 9.333 128 35.333 168 78s60 86.334 60 131.001c0 37.333-8.333 90.333-25 159-14 58-21 111.333-21 160 0 90.667 35.667 174.167 107 250.5s161 120.833 269 133.5v-35c-81.333-18.667-139.333-50.334-174-95.001s-52-89-52-133c0-42 8-97.333 24-166 14-59.333 21-111.666 21-156.999 0-73.333-26.333-140.833-79-202.5S455.333 571.667 364 539c92-33.333 164.167-82 216.5-146S659 262 659 192c0-46-7-98.333-21-157-16-69.333-24-125-24-167 0-48.667 18.333-94 55-136s93.667-72.667 171-92z"/><glyph glyph-name="bar" unicode="|" horiz-adv-x="405" d="M135 1469h133V-434H135v1903z"/><glyph glyph-name="braceright" unicode="}" horiz-adv-x="981" d="m177 1434 .001 35c108-12.667 197.667-57.167 269-133.5s107-159.833 107-250.5c0-48.667-7-102-21-160-16.667-68.667-25-121.667-25-159 0-44.667 20.167-88.5 60.5-131.5S663.667 565.667 735 557v-40c-72-8.667-128-34.5-168-77.5s-60-86.833-60-131.5c0-37.333 8.333-90.333 25-159 14-57.333 21-110.666 21-159.999 0-90.667-35.667-174.167-107-250.5s-161-120.833-269-133.5v35c81.333 18.667 139.333 50.5 174 95.5s52 89.167 52 132.5c0 42-8 97.667-24 167-14.667 58.667-22 110.667-22 156 0 73.333 26.5 140.833 79.5 202.5S561.667 502.335 653 535.002c-92 33.333-164.333 82.166-217 146.499s-79 131.5-79 201.5c0 45.333 7.333 97.666 22 156.999 16 68.667 24 124 24 166 0 48.667-18.333 94-55 136s-93.667 72.667-171 92z"/><glyph glyph-name="asciitilde" unicode="~" horiz-adv-x="1366" d="M1171 853h51.002c-3.333-96.667-29.5-171.334-78.5-224.001s-108.5-79-178.5-79c-34 0-68.167 4.833-102.5 14.5S737.336 609.333 590.003 670c-100 41.333-171.667 62-215 62-99.333 0-159.333-60-180-180h-52c3.333 104 30.166 180.333 80.499 229s106.166 73 167.499 73c67.333 0 194.666-40.333 381.999-121 100-42.667 172.333-64 217-64 106.667 0 167 61.333 181 184z"/><glyph glyph-name="nbspace" horiz-adv-x="512"/><glyph glyph-name="currency" unicode="¤" horiz-adv-x="1409" d="m977 1064 126.999 126.999 88-90-126-126c60-84 90-175 90-273s-30-188.667-90-272l126-125-88-89-127 125c-41.333-30-84.666-52.667-129.999-68s-93-23-143-23c-94 0-184.667 30.333-272 91l-127-125-89 89 127 125C282.333 512.666 252 603.333 252 702c0 93.333 30.333 184.333 91 273l-127 126 89 90 127-127c42.667 30 86.667 52.5 132 67.5s92 22.5 140 22.5c92.667 0 183.667-30 273-90zm-273.001-36c-87.333 0-163.333-31-228-93s-97-139.667-97-233c0-89.333 31.833-165.833 95.5-229.5s140.167-95.5 229.5-95.5c90 0 166.667 31.833 230 95.5s95 140.167 95 229.5c0 90-31.833 166.833-95.5 230.5s-140.167 95.5-229.5 95.5z"/><glyph glyph-name="brokenbar" unicode="¦" horiz-adv-x="405" d="M135 1469h133V644H135v825zm0-1080h133v-823H135v823z"/><glyph glyph-name="section" unicode="§" horiz-adv-x="789" d="M261 877c-41.333 41.333-72.503 83.833-93.503 127.5s-31.5 88.5-31.5 134.5c0 81.333 28 149.666 84 204.999s125 83 207 83c68.667 0 128-21.667 178-65s75-95.666 75-156.999c0-25.333-7.333-47-22-65s-33.334-27-56-27c-50 0-75 27.667-75 83 0 16.667 2 33.667 6 51 5.332 23.333 8 40.666 8 51.999 0 26-10.834 47.667-32.5 65s-48.168 26-79.5 26c-53.334 0-98.167-18-134.5-54s-54.5-75.667-54.5-119c0-53.333 17-101.333 51-144 33.333-43.333 92-95.666 176-156.999 80-58 148-120.5 204-187.5s84-140.833 84-221.5c0-149.333-74-265.333-222-348 42-41.333 73.333-83.833 94-127.5s31-88.834 31-135.501c0-82-27.667-150.833-83-206.5s-124-83.5-206-83.5c-69.333 0-129.166 22.5-179.499 67.5s-75.5 98.5-75.5 160.5c0 24 8 44.667 24 62s35 26 57 26c21.333 0 38.5-7.833 51.5-23.5s19.5-34.167 19.5-55.5c0-18.667-2.667-38.667-8-60-4.667-19.333-7-34.333-7-45 0-26.667 11.333-49 34-67s50.334-27 83.001-27c52.667 0 97.334 18.333 134.001 55S557-226.667 557-188c0 26.667-4.333 52.5-13 77.5S522-61.667 504-39C468.667 6.333 395.667 70 285 152 119.667 274.667 37 399 37 525c0 148.667 74.667 266 224 352zm32.997-31c-105.333-57.333-158-132-158-224 0-60.667 19-115.5 57-164.5s93.333-100.833 166-155.5c68.667-52 116.667-90 144-114 104 55.333 156 130.666 156 225.999 0 42.667-11 83.834-33 123.501s-65.667 87.167-131 142.5z"/><glyph glyph-name="copyright" unicode="©" horiz-adv-x="1599" d="M799 1438c200.667 0 372.667-71.334 516-214.001s215-314.667 215-516c0-200.667-71.5-372.5-214.5-515.5s-315.167-214.5-516.5-214.5c-200.667 0-372.5 71.5-515.5 214.5S69 507.332 69 707.999C69 838.666 102.333 961.333 169 1076s157 203.667 271 267 233.667 95 359 95zm0-64c-114.667 0-224-28.833-328-86.5s-186.5-138.834-247.5-243.501-91.5-217-91.5-337c0-184 65.167-341.167 195.5-471.5S615 39.999 799 39.999c183.333 0 340.5 65.333 471.5 196s196.5 287.667 196.5 471c0 120-30.5 232.333-91.5 337S1232 1229.833 1128 1287.5 914.333 1374 799 1374zm361-198 20.999-288h-40c-49.333 162-153.333 243-312 243-110 0-192.667-38-248-114s-83-171.333-83-286c0-145.333 31.167-252.5 93.5-321.5S736.332 306 838.999 306c134 0 241 55.333 321 166l39-19c-95.333-139.333-227-209-395-209-141.333 0-256.166 45.333-344.499 136S327 577.667 327 701c0 127.333 47 238.5 141 333.5S686 1177 840 1177c49.333 0 113-12.667 191-38 17.333-5.333 30.333-8 39-8 22 0 38.667 15 50 45h40z"/><glyph glyph-name="guillemotleft" unicode="«" d="M454 992h58L265 518 512 37h-58L64 518zm454 0h59L721 518 967 37h-59L512 518z"/><glyph glyph-name="logicalnot" unicode="¬" horiz-adv-x="1366" d="M141 1001h1085V404h-129v468H141v129z"/><glyph glyph-name="registered" unicode="®" horiz-adv-x="1599" d="M799 1438c200.667 0 372.667-71.334 516-214.001s215-314.667 215-516c0-200.667-71.5-372.5-214.5-515.5s-315.167-214.5-516.5-214.5c-200.667 0-372.5 71.5-515.5 214.5S69 507.332 69 707.999C69 838.666 102.333 961.333 169 1076s157 203.667 271 267 233.667 95 359 95zm0-64c-114.667 0-224-28.833-328-86.5s-186.5-138.834-247.5-243.501-91.5-217-91.5-337c0-184 65.167-341.167 195.5-471.5S615 39.999 799 39.999c183.333 0 340.5 65.333 471.5 196s196.5 287.667 196.5 471c0 120-30.5 232.333-91.5 337S1232 1229.833 1128 1287.5 914.333 1374 799 1374zm-379-218h397c94 0 168.667-21.333 224-64s83-98 83-166c0-58-19-106-57-144s-95.333-66.333-172-85l216-307c40-57.333 81.333-87.333 124-90v-35h-189L742 682h-78V364c3.333-17.333 11.333-32.333 24-45s45-19 97-19v-35H408v35c34 0 58.333 4.333 73 13s24 20 28 34 6 45.667 6 95v538c0 60-5.333 98-16 114s-37 24.333-79 25v37zm244-429.001h31.001c86.667 0 152.167 16.833 196.5 50.5s66.5 79.167 66.5 136.5c0 55.333-19.333 101.833-58 139.5s-88.334 56.5-149.001 56.5c-28 0-57-5-87-15v-368z"/><glyph glyph-name="degree" unicode="°" horiz-adv-x="811" d="M405 1438c84.667 0 157.167-30 217.5-90s90.5-132.667 90.5-218c0-84-30.167-156.167-90.5-216.5S489.667 823 405 823c-84 0-156.167 30.167-216.5 90.5S98 1046 98 1130c0 85.333 30.167 158 90.5 218s132.5 90 216.5 90zm0-84c-60 0-112.167-21.167-156.5-63.5S182 1195 182 1131c0-61.333 21.667-113.833 65-157.5S343 908 405 908s114.667 21.833 158 65.5 65 96.167 65 157.5-21.833 113.833-65.5 157.5S466.333 1354 405 1354z"/><glyph glyph-name="plusminus" unicode="±" horiz-adv-x="1366" d="M140 937h478v480h129V937h480V808H747V331H618v477H140v129zm0-808h1087V0H140v129z"/><glyph glyph-name="mu" unicode="µ" horiz-adv-x="1067" d="m127 950 169-.001v-554c0-118 11.333-197.167 34-237.5s60-60.5 112-60.5c40.667 0 81.334 11.5 122.001 34.5s81.334 57.5 122.001 103.5v714h170v-741c-.667-40.667 6.166-71.834 20.499-93.501s31.166-32.5 50.499-32.5c43.333 0 71 42.333 83 127h43c-12-158.667-80-238-204-238-48 0-85.5 16.333-112.5 49s-43.833 81.667-50.5 147c-52.667-65.333-106-114.333-160-147s-108.667-49-164-49c-34 0-64.333 7.333-91 22s-49.667 36.334-69 65.001c-.667-21.333-1-37-1-47 0-56 11.667-138.333 35-247 9.333-41.333 14-77.666 14-108.999 0-26.667-8.667-52-26-76s-41-36-71-36-52.5 11.5-67.5 34.5S63-373 63-345c0 32.667 10 90 30 172 23.333 94.667 35 184.667 35 270l-1 100v753z"/><glyph glyph-name="paragraph" unicode="¶" horiz-adv-x="961" d="M983 1406v-37h-42c-52 0-85-12.167-99-36.5s-21-82.5-21-174.5V-432h-75v1781H553V-432h-76V623c-332 4-498 135.333-498 394 0 116.667 40.5 210.667 121.5 282s196.167 107 345.5 107h537z"/><glyph glyph-name="periodcentered" unicode="·" horiz-adv-x="555" d="M277 816c30.667 0 57.332-10.831 79.999-32.498s34-48.834 34-81.501c0-31.333-11.167-58-33.5-80s-49.166-33-80.499-33c-30.667 0-57.167 11-79.5 33s-33.5 48.667-33.5 80 11.167 58.166 33.5 80.499S246.333 816 277 816z"/><glyph glyph-name="periodcentered" unicode="∙" horiz-adv-x="555" d="M277 816c30.667 0 57.332-10.831 79.999-32.498s34-48.834 34-81.501c0-31.333-11.167-58-33.5-80s-49.166-33-80.499-33c-30.667 0-57.167 11-79.5 33s-33.5 48.667-33.5 80 11.167 58.166 33.5 80.499S246.333 816 277 816z"/><glyph glyph-name="guillemotright" unicode="»" d="M570 37h-58l247 479-247 476h58l390-476zm-454 0H57l246 479L57 992h59l396-476z"/><glyph glyph-name="afii10023" unicode="Ё" horiz-adv-x="1366" d="M421 1782c36 0 67-12.832 93-38.499s39-56.834 39-93.501c0-36-13-67-39-93s-57-39-93-39-67 12.833-93 38.5-39 56.834-39 93.501c0 37.333 13 68.666 39 93.999s57 38 93 38zm518-1c35.333 0 66.001-12.667 92.001-38s39-56.666 39-93.999c0-36.667-12.833-67.834-38.5-93.501s-56.5-38.5-92.5-38.5c-36.667 0-67.834 12.833-93.501 38.5s-38.5 56.834-38.5 93.501c0 37.333 13 68.666 39 93.999s57 38 93 38zm250-375 17.997-310.002h-36c-8.667 61.333-26.667 110-54 146s-56.166 58.833-86.499 68.5-72.833 14.5-127.5 14.5h-405v-543h362c122.667 0 184 68.333 184 205h37v-495h-37c0 84.667-16 140.667-48 168s-80.333 41-145 41h-353v-509c0-46 7.833-76 23.5-90s45.834-21 90.501-21h291c95.333 0 168.5 19 219.5 57s103.833 109 158.5 213h39l-113-351H74v37c60 0 104.833 8.167 134.5 24.5s48.334 36.333 56.001 60 11.5 74.167 11.5 151.5v861c0 80.667-4.5 132.834-13.5 156.501s-27.833 42.334-56.5 56.001-72.667 21.167-132 22.5v37h1115z"/><glyph glyph-name="afii10051" unicode="Ђ" horiz-adv-x="1643" d="m77 1406 1093-.001 13-296h-37c-22 139.333-106 209-252 209H718v-554c58.667 69.333 120.5 121.166 185.5 155.499s133.5 51.5 205.5 51.5c76.667 0 150.334-19.667 221.001-59s127.834-95.166 171.501-167.499 65.5-157.166 65.5-254.499c0-140-37.333-259.167-112-357.5S1295.335-14 1200.002-14c-56 0-107.667 17.333-155 52l20 36c35.333-24 68-36 98-36 46.667 0 83.334 22.167 110.001 66.5s40 158.833 40 343.5c0 160.667-26.167 267.167-78.5 319.5s-115.833 78.5-190.5 78.5c-60 0-117.167-16.167-171.5-48.5S766.67 716.667 718.003 652V224c0-69.333 14.667-117.5 44-144.5S842.669 38.333 916.002 37V0h-618v37c71.333 0 122.166 12.5 152.499 37.5s45.5 71.5 45.5 139.5v1105h-155c-150 0-234-69.667-252-209h-37z"/><glyph glyph-name="afii10052" unicode="Ѓ" horiz-adv-x="1282" d="m995 1820-510-300h-36l180 300h366zm234-414 14.999-321.001h-37c-15.333 97.333-53.333 160.666-114 189.999s-135 44-223 44h-363v-1142c0-45.333 16.333-79.666 49-102.999s85-35.666 157-36.999V0h-628v37c57.333 0 100.5 7.167 129.5 21.5s48.167 32.5 57.5 54.5 14 63.333 14 124v942c0 80.667-14.667 132.5-44 155.5S160.333 1369 85 1369v37h1144z"/><glyph glyph-name="afii10053" unicode="Є" horiz-adv-x="1429" d="m1335 1438 27.998-479.998h-37c-23.333 131.333-81.166 232.166-173.499 302.499s-195.5 105.5-309.5 105.5c-149.333 0-271-57.833-365-173.5s-143.667-257.5-149-425.5h617v-88h-617c1.333-200.667 54.5-354.167 159.5-460.5s233.5-159.5 385.5-159.5c192.667 0 355.667 91.667 489 275l24-26c-59.333-102.667-140-184.834-242-246.501S929.666-31 804.999-31c-111.333 0-224.5 27.333-339.5 82s-208.667 139-281 253-108.5 243.333-108.5 388c0 206.667 73.833 382.667 221.5 528S624.333 1438 835 1438c95.333 0 192.333-21 291-63 50-21.333 81.333-32 94-32 36 0 62 31.667 78 95h37z"/><glyph glyph-name="afii10054" unicode="Ѕ" horiz-adv-x="1131" d="m943 1436-.001-465.001h-38c-14 108-56 199-126 273s-153 111-249 111c-69.333 0-127.5-20.167-174.5-60.5s-70.5-88.833-70.5-145.5c0-42 14.667-81.667 44-119 28.667-38 105-93.333 229-166 80-46.667 154-92 222-136s126-96.833 174-158.5 72-132.5 72-212.5c0-116.667-44.833-210.5-134.5-281.5s-189.167-106.5-298.5-106.5c-72.667 0-171.334 20.667-296.001 62-25.333 8-47 12-65 12-36 0-63.667-24.667-83-74h-38v474h38c28.667-136 80.334-235.5 155.001-298.5s157.667-94.5 249-94.5c79.333 0 144.333 20.833 195 62.5s76 95.167 76 160.5c0 55.333-22 110.333-66 165-44.667 54-138.667 121.667-282 203-145.333 82-243.666 152.667-294.999 212-51.333 58.667-77 132.334-77 221.001 0 102 38.333 188.167 115 258.5S390 1438 502 1438c64 0 148.333-20 253-60 26.667-10.667 50-16 70-16 35.333 0 62 24.667 80 74h38z"/><glyph glyph-name="afii10055" unicode="І" horiz-adv-x="791" d="m72 1369 .002 36.999h647v-37c-63.333-.667-109.666-7.667-138.999-21s-48.833-32.166-58.5-56.499-14.5-76.833-14.5-157.5V273c0-79.333 4.167-131 12.5-155s27.666-43.5 57.999-58.5 77.5-22.5 141.5-22.5V0h-647v37c62.667.667 109.167 7.834 139.5 21.501s50.166 32.667 59.499 57 14 76.833 14 157.5v861c0 81.333-4.833 134.166-14.5 158.499s-29.334 43-59.001 56-76.167 19.833-139.5 20.5z"/><glyph glyph-name="afii10056" unicode="Ї" horiz-adv-x="789" d="M139 1782c35.333 0 66.168-12.501 92.501-37.501s39.5-56.5 39.5-94.5c0-36-13-67-39-93s-57-39-93-39-67 12.833-93 38.5-39 56.834-39 93.501c0 38 13.167 69.5 39.5 94.5S103.667 1782 139 1782zm513.002-1c36 0 67.167-12.668 93.5-38.001s39.5-56.666 39.5-93.999c0-36.667-13-67.834-39-93.501s-57.333-38.5-94-38.5c-36 0-67 12.833-93 38.5s-39 56.834-39 93.501c0 36 13 67 39 93s57 39 93 39zm-580-412 .003 36.999h647v-37c-62.667-.667-108.834-7.667-138.501-21s-49.334-32.166-59.001-56.499-14.5-76.833-14.5-157.5V273c0-79.333 4.333-131 13-155s28-43.5 58-58.5 77-22.5 141-22.5V0h-647v37c63.333.667 110 7.834 140 21.501s49.667 32.667 59 57 14 76.833 14 157.5v861c0 81.333-4.833 134.166-14.5 158.499s-29.334 43-59.001 56-76.167 19.833-139.5 20.5z"/><glyph glyph-name="afii10057" unicode="Ј" horiz-adv-x="897" d="m214 1369 .002 36.998h629v-37c-58-2-101.333-9.667-130-23s-47.334-32-56.001-56-13-76-13-156v-635c0-111.333-11-203.666-33-276.999s-62.833-133.833-122.5-181.5-133.834-71.5-222.501-71.5c-66 0-121.167 14.167-165.5 42.5S34 76.999 34 122.999c0 29.333 10 54 30 74s44.667 30 74 30c48.667 0 88.667-32 120-96 30-59.333 60.333-89 91-89 28.667 0 48 16 58 48s15 105.333 15 220v824c0 80.667-4.5 132.834-13.5 156.501s-28 42.5-57 56.5-74.833 21.333-137.5 22z"/><glyph glyph-name="afii10058" unicode="Љ" horiz-adv-x="1962" d="m1248 778 82.003-.001c119.333 0 215.5-9.833 288.5-29.5s136.5-62 190.5-127 81-143.5 81-235.5c0-87.333-24.833-163.333-74.5-228s-109.5-107.167-179.5-127.5-161.667-30.5-275-30.5h-542v37c74 0 127 11.667 159 35s48 65.333 48 126v1121h-429v-550c0-309.333-37.167-517.333-111.5-624s-163.833-160-268.5-160c-50 0-91.5 12-124.5 36s-49.5 55.333-49.5 94c0 28.667 10 53.5 30 74.5s46 31.5 78 31.5c26 0 63.667-17.333 113-52 27.333-19.333 47.666-29 60.999-29 63.333 0 110.666 57.667 141.999 173s47 288 47 518v279c0 80-3.833 134.667-11.5 164s-25.834 52.5-54.501 69.5-71 25.5-127 25.5v37h1133v-37c-84 0-139.333-13.667-166-41s-40-82.666-40-165.999V778zm0-689.001C1277.333 79.666 1306.333 75 1335 75c82.667 0 153.667 27.167 213 81.5s89 129.166 89 224.499c0 96.667-28.167 174.5-84.5 233.5s-138.166 88.5-245.499 88.5c-14.667 0-34.334-.333-59.001-1v-613z"/><glyph glyph-name="afii10059" unicode="Њ" horiz-adv-x="1985" d="m491 778 526.999-.001v414c0 48-7.167 84.5-21.5 109.5s-33.666 42.333-57.999 52S874 1368.333 818 1369v37h620v-37c-70 0-120.5-11.833-151.5-35.5s-46.5-70.834-46.5-141.501v-414h35c225.333 0 386-32.5 482-97.5s144-163.167 144-294.5c0-86.667-25-162.5-75-227.5s-107.833-107.667-173.5-128-156.167-30.5-271.5-30.5H818v37h26c116 0 174 54 174 162v504H491v-476c0-70.667 14.167-119.5 42.5-146.5s80.833-41.5 157.5-43.5v-37H72v37c73.333 2 124.666 15.333 153.999 40s44 69.667 44 135v980c0 66.667-15.667 112.834-47 138.501S141.333 1369 72 1369v37h619v-37c-73.333 0-125-12.5-155-37.5s-45-71.5-45-139.5V778zm749-697.001c29.333-4 57.333-6 84-6 112 0 193.833 28.833 245.5 86.5s77.5 132.167 77.5 223.5c0 106.667-33.833 186.667-101.5 240s-169.5 80-305.5 80v-624z"/><glyph glyph-name="afii10060" unicode="Ћ" horiz-adv-x="1663" d="M717 766c63.333 68.667 128.501 120.167 195.501 154.5s135.5 51.5 205.5 51.5c74 0 145-22.667 213-68 67.333-46 101-123 101-231V229c0-50 3.833-85.833 11.5-107.5s25.167-40.5 52.5-56.5 61.333-25.333 102-28V0h-563v37c56 0 99.333 11.833 130 35.5s46 71.167 46 142.5v437c0 80-18.167 131.833-54.5 155.5s-75.166 35.5-116.499 35.5c-62.667 0-123.167-19-181.5-57s-105.5-82.667-141.5-134V224c0-69.333 14.667-117.5 44-144.5S841.668 38.333 915.001 37V0h-618v37c71.333 0 122.166 12.5 152.499 37.5S495 146.333 495 215v1104H340c-150 0-234-69.667-252-209H51l25 296h1093l13-296h-37c-22 139.333-106 209-252 209H717V766z"/><glyph glyph-name="afii10061" unicode="Ќ" horiz-adv-x="1536" d="m1115 1820-511-300h-36l180 300h367zM498 764h49.001c83.333 0 154.166 24.833 212.499 74.5S871 977.667 919 1107c36.667 98 67 163.333 91 196s56.167 60.334 96.5 83.001 96.166 34 167.499 34c124.667 0 187-38.333 187-115 0-30.667-11.333-56.667-34-78s-48.667-32-78-32c-30 0-70.333 15.333-121 46-28.667 17.333-51.667 26-69 26-34.667 0-61-10.333-79-31-18-21.333-43-74-75-158-71.333-184.667-151-296.667-239-336 90-28 182-112 276-252l13-18 85-122c94.667-135.333 164-221.333 208-258s94.333-55 151-55h21v-37h-367l-351 485c-45.333 62.667-86.833 110.667-124.5 144s-85.167 50-142.5 50h-37v-490c0-101.333 56-152 168-152h38v-37h-633v37h29c118 0 177 58 177 174v990c0 63.333-16.5 107.166-49.5 131.499s-85.167 36.5-156.5 36.5v37h633v-37h-32c-65.333 0-110.666-13.833-135.999-41.5s-38-72.167-38-133.5V764z"/><glyph glyph-name="afii10062" unicode="Ў" horiz-adv-x="1497" d="M1120 1817c20 0 37.5-8.667 52.5-26s22.5-38 22.5-62c0-60-31.5-111.167-94.5-153.5S941 1512 811 1512c-134 0-231.5 21.333-292.5 64s-91.5 93.667-91.5 153c0 23.333 7.333 43.833 22 61.5s33 26.5 55 26.5 41-8.333 57-25 38-54 66-112c40-82.667 101.333-124 184-124s144 41.333 184 124c28.667 58.667 50.5 96.167 65.5 112.5s34.833 24.5 59.5 24.5zM6 1406l598-.001v-37h-25c-90.667 0-136-26.667-136-80 0-18.667 10.333-46 31-82l402-713 299 691c20.667 48.667 31 82 31 100 0 56-40.333 84-121 84h-26v37h432v-37c-97.333-11.333-173.333-78.333-228-201l-407-913c-84.667-190.667-211.667-286-381-286-60 0-105.333 12.333-136 37s-46 52-46 82c0 68 35.333 102 106 102 41.333 0 87.333-20.333 138-61 26-20.667 46.667-31 62-31 48.667 0 100 49.333 154 148l-521 949c-38.667 70.667-75 117.334-109 140.001s-73 34-117 34v37z"/><glyph glyph-name="afii10145" unicode="Џ" horiz-adv-x="1685" d="m76 0-.002 36.998h25c64 0 109.333 14 136 42s40 71.667 40 131v1008c0 100.667-56.667 151-170 151h-31v37h625v-37c-56 0-96.333-4.167-121-12.5s-44.334-25.166-59.001-50.499-22-62.666-22-111.999V189c0-42.667 6.333-70.667 19-84s43.334-20 92.001-20h483c36.667 0 61.334 7.5 74.001 22.5s19 42.167 19 81.5v1005c0 64-15 108.833-45 134.5s-82.333 39.167-157 40.5v37h625v-37h-32c-112.667 0-169-58.333-169-175V204c0-59.333 14.5-102 43.5-128s81.5-39 157.5-39V0h-386c-241.333 0-362-131.333-362-394h-37c0 131.333-29.667 229.833-89 295.5S575.333 0 434 0H76z"/><glyph glyph-name="afii10017" unicode="А" horiz-adv-x="1579" d="m795 1469 556-1282c24.667-57.333 49.167-96.666 73.5-117.999s65.5-32 123.5-32v-37H971v37c98.667 0 148 33 148 99 0 20.667-9.333 52.334-28 95.001l-106 243H418l-126-287c-7.333-18-11-36.667-11-56 0-62.667 50.333-94 151-94v-37H26v37c40 4.667 73.167 19.5 99.5 44.5s56.5 76.5 90.5 154.5l541 1233h38zm-93-346L452 550h500z"/><glyph glyph-name="afii10018" unicode="Б" horiz-adv-x="1323" d="M79 1406h1056l12-322h-37c-7.333 156.667-96.333 235-267 235H499V778h143c214.667 0 368.834-38.333 462.501-115s140.5-169.667 140.5-279c0-108.667-43.5-199.834-130.5-273.501s-209.5-110.5-367.5-110.5h-668v37c62 0 105.5 6.333 130.5 19s42.667 31 53 55 15.5 66 15.5 126v932c0 57.333-5.5 98.833-16.5 124.5s-28.833 44.334-53.5 56.001-67.667 18.167-129 19.5v37zm419.999-713V91.999c45.333-11.333 95.333-17 150-17 98.667 0 180.5 29.167 245.5 87.5s97.5 139.5 97.5 243.5c0 92.667-33.167 165.334-99.5 218.001s-155.833 79-268.5 79c-39.333 0-81-3.333-125-10z"/><glyph glyph-name="afii10019" unicode="В" horiz-adv-x="1366" d="M961 722c102-19.333 180.502-61.17 235.502-125.503s82.5-137.166 82.5-218.499-24.667-152.666-74-213.999-110.5-104-183.5-128-169.167-36-288.5-36h-645v37c60.667 0 106 8 136 24s48.833 35.833 56.5 59.5 11.5 74.5 11.5 152.5v861c0 80.667-4.5 132.834-13.5 156.501s-28 42.334-57 56.001-73.5 21.167-133.5 22.5v37h564c203.333 0 348.166-36.833 434.499-110.5s129.5-161.834 129.5-264.501c0-71.333-22.833-136-68.5-194S1039.667 740.667 961 722zm-446.998 605 .002-549c75.333-14.667 133.666-22 174.999-22 73.333 0 140.166 25.5 200.499 76.5s90.5 119.833 90.5 206.5c0 90-32.833 162.667-98.5 218s-145.167 83-238.5 83c-40 0-83-4.333-129-13zm.002-645.004V98.997c55.333-18 112-27 170-27 106.667 0 189.334 29 248.001 87s88 129.667 88 215c0 99.333-38 176.666-114 231.999s-175 83-297 83c-28.667 0-60.334-2.333-95.001-7z"/><glyph glyph-name="afii10020" unicode="Г" horiz-adv-x="1282" d="m1229 1406 14.999-321.001h-37c-15.333 97.333-53.333 160.666-114 189.999s-135 44-223 44h-363v-1142c0-45.333 16.333-79.666 49-102.999s85-35.666 157-36.999V0h-628v37c57.333 0 100.5 7.167 129.5 21.5s48.167 32.5 57.5 54.5 14 63.333 14 124v942c0 80.667-14.667 132.5-44 155.5S160.333 1369 85 1369v37h1144z"/><glyph glyph-name="afii10021" unicode="Д" horiz-adv-x="1530" d="m281 1406 1182 .002v-37h-36c-58.667 0-100.334-13.667-125.001-41s-37-70.666-37-129.999v-970c0-79.333 14.5-131 43.5-155s73.5-36 133.5-36h21v-431h-36c-29.333 130.667-77.666 229-144.999 295s-186 99-356 99H531c-86.667 0-156.834-11.833-210.501-35.5s-105.334-68.334-155.001-134.001-83.5-140.5-101.5-224.5h-38v431c140 5.333 251.333 119.5 334 342.5s124 486.167 124 789.5c0 83.333-15.333 137.166-46 161.499s-83 37.166-157 38.499v37zm302.002-87-24.001-376c-24.667-376.667-112-661.667-262-855h639c46.667 0 76.334 6 89.001 18s19 42.333 19 91v1122h-461z"/><glyph glyph-name="afii10022" unicode="Е" horiz-adv-x="1366" d="m1189 1406 17.997-310.002h-36c-8.667 61.333-26.667 110-54 146s-56.166 58.833-86.499 68.5-72.833 14.5-127.5 14.5h-405v-543h362c122.667 0 184 68.333 184 205h37v-495h-37c0 84.667-16 140.667-48 168s-80.333 41-145 41h-353v-509c0-46 7.833-76 23.5-90s45.834-21 90.501-21h291c95.333 0 168.5 19 219.5 57s103.833 109 158.5 213h39l-113-351H74v37c60 0 104.833 8.167 134.5 24.5s48.334 36.333 56.001 60 11.5 74.167 11.5 151.5v861c0 80.667-4.5 132.834-13.5 156.501s-27.833 42.334-56.5 56.001-72.667 21.167-132 22.5v37h1115z"/><glyph glyph-name="afii10024" unicode="Ж" horiz-adv-x="2042" d="m1329 37 .001-37h-618v37c56 0 96.333 5 121 15s44.167 27.167 58.5 51.5 21.5 57.5 21.5 99.5v489c-54 0-89.333-5.667-106-17S746.667 601.167 678 487.5 519.333 211.333 408 0H45v37c39.333 0 79.166 11.167 119.499 33.5s74.5 52.666 102.5 90.999 78.333 120.833 151 247.5c82.667 140 133.834 222.333 153.501 247S623.667 705.333 669 730c-41.333 24-73.166 56.667-95.499 98s-50.833 119.333-85.5 234c-28.667 92-50 149.667-64 173-14.667 23.333-33 35-55 35-23.333 0-55-11.667-95-35-45.333-26.667-83-40-113-40-24 0-46 8.667-66 26s-30 42.333-30 75c0 36 16.667 65.667 50 89s76.333 35 129 35c54 0 102.667-10 146-30s77-49.667 101-89 53.333-116.666 88-231.999c38.667-128.667 75.834-212.167 111.501-250.5s91.5-57.5 167.5-57.5c14.667 0 32.667 1.333 54 4v439c0 61.333-16 104.166-48 128.499s-83 36.5-153 36.5v37h618v-37c-60.667-2.667-101.334-7.334-122.001-14.001s-38.834-22.167-54.501-46.5-23.5-56.833-23.5-97.5v-446c22.667-2.667 40.667-4 54-4 76 0 132.333 19 169 57s74.667 122.667 114 254c34 112 62 187.5 84 226.5s53.167 69 93.5 90 87.5 31.5 141.5 31.5c58.667 0 104.834-12.167 138.501-36.5s50.5-53.166 50.5-86.499c0-27.333-9.833-51.166-29.5-71.499s-41.834-30.5-66.501-30.5c-27.333 0-64 13.667-110 41-40 23.333-72 35-96 35-22 0-39.667-9.667-53-29-13.333-20-35.666-79-66.999-177-39.333-123.333-68.5-202.333-87.5-237s-49.5-67.334-91.5-98.001c43.333-23.333 77.166-49.666 101.499-78.999s87.833-134 190.5-314c80.667-140.667 144.834-225.834 192.501-255.501s94.167-44.5 139.5-44.5V0h-363l-350 618c-18 32-36.667 52.333-56 61s-52.333 13-99 13V209c0-56.667 13.167-99.5 39.5-128.5S1240.667 37 1306 37h23z"/><glyph glyph-name="afii10025" unicode="З" horiz-adv-x="1090" d="m122 1438 40-.003c9.333-41.333 31.333-62 66-62 16 0 39.333 5 70 15 94.667 31.333 181.667 47 261 47 104 0 196.167-33.167 276.5-99.5s120.5-155.5 120.5-267.5c0-182-92.667-295.333-278-340 101.333-13.333 180.333-53.166 237-119.499s85-145.833 85-238.5c0-115.333-46-211.5-138-288.5s-212.333-115.5-361-115.5c-189.333 0-334.666 92.333-435.999 277l31 19c94-133.333 211.333-200 352-200 104 0 179.833 30.833 227.5 92.5s71.5 139.834 71.5 234.501c0 94-32.333 169-97 225S493.667 701 375 701c-12.667 0-28-.333-46-1v68c144 0 247.333 26.333 310 79S733 979.333 733 1086c0 78.667-20 143.5-60 194.5S572.667 1357 492 1357c-186 0-297.667-112.667-335-338h-35v419z"/><glyph glyph-name="afii10026" unicode="И" horiz-adv-x="1688" d="m990 1406 626-.002v-37c-73.333 0-125.5-12.333-156.5-37s-46.5-67.334-46.5-128.001v-981c0-46 4.167-80.5 12.5-103.5s25.166-42.5 50.499-58.5 61.333-24 108-24h32v-37h-626v37h38c36.667 0 68 6.833 94 20.5s44.167 32.167 54.5 55.5 15.5 60 15.5 110v848l-697-858c0-48 4.5-82.333 13.5-103s26.167-38 51.5-52 58-21 98-21h39v-37h-626v37h35c58.667 0 101.167 14.333 127.5 43s39.5 76.334 39.5 143.001v981c0 58.667-12.833 100.834-38.5 126.501s-71.5 38.5-137.5 38.5h-26v37h626v-37h-39c-108.667 0-163-55-163-165v-865l697 859c0 64.667-13.667 109.334-41 134.001s-70.666 37-129.999 37h-31v37z"/><glyph glyph-name="afii10027" unicode="Й" horiz-adv-x="1688" d="M1167 1817c20 0 37.498-8.667 52.498-26s22.5-38 22.5-62c0-59.333-30.667-110.333-92-153s-158.666-64-291.999-64c-129.333 0-225.666 21-288.999 63s-95 93.333-95 154c0 23.333 7.333 43.833 22 61.5s33 26.5 55 26.5 41-8.333 57-25 38-54 66-112c40-82.667 101.333-124 184-124s144 41.333 184 124c28.667 58.667 50.5 96.167 65.5 112.5s34.833 24.5 59.5 24.5zm-177.002-411 626-.002v-37c-73.333 0-125.5-12.333-156.5-37s-46.5-67.334-46.5-128.001v-981c0-46 4.167-80.5 12.5-103.5s25.166-42.5 50.499-58.5 61.333-24 108-24h32v-37h-626v37h38c36.667 0 68 6.833 94 20.5s44.167 32.167 54.5 55.5 15.5 60 15.5 110v848l-697-858c0-48 4.5-82.333 13.5-103s26.167-38 51.5-52 58-21 98-21h39v-37h-626v37h35c58.667 0 101.167 14.333 127.5 43s39.5 76.334 39.5 143.001v981c0 58.667-12.833 100.834-38.5 126.501s-71.5 38.5-137.5 38.5h-26v37h626v-37h-39c-108.667 0-163-55-163-165v-865l697 859c0 64.667-13.667 109.334-41 134.001s-70.666 37-129.999 37h-31v37z"/><glyph glyph-name="afii10028" unicode="К" horiz-adv-x="1536" d="M498 764h49.001c83.333 0 154.166 24.833 212.499 74.5S871 977.667 919 1107c36.667 98 67 163.333 91 196s56.167 60.334 96.5 83.001 96.166 34 167.499 34c124.667 0 187-38.333 187-115 0-30.667-11.333-56.667-34-78s-48.667-32-78-32c-30 0-70.333 15.333-121 46-28.667 17.333-51.667 26-69 26-34.667 0-61-10.333-79-31-18-21.333-43-74-75-158-71.333-184.667-151-296.667-239-336 90-28 182-112 276-252l13-18 85-122c94.667-135.333 164-221.333 208-258s94.333-55 151-55h21v-37h-367l-351 485c-45.333 62.667-86.833 110.667-124.5 144s-85.167 50-142.5 50h-37v-490c0-101.333 56-152 168-152h38v-37h-633v37h29c118 0 177 58 177 174v990c0 63.333-16.5 107.166-49.5 131.499s-85.167 36.5-156.5 36.5v37h633v-37h-32c-65.333 0-110.666-13.833-135.999-41.5s-38-72.167-38-133.5V764z"/><glyph glyph-name="afii10029" unicode="Л" horiz-adv-x="1536" d="m288 1369 .003 37.001h1175v-37c-70.667 0-121.834-11.5-153.501-34.5s-47.5-64.5-47.5-124.5v-1007c0-64.667 16-108.5 48-131.5s83-34.5 153-34.5v-37h-628v37c75.333 2 128.5 15 159.5 39s46.5 66.333 46.5 127v1116h-465v-550c0-260.667-29.667-456.334-89-587.001s-148.333-196-267-196c-117.333 0-176 42.667-176 128 0 34 10.667 60.5 32 79.5s43 28.5 65 28.5c27.333 0 59.666-14 96.999-42 35.333-26.667 61-40 77-40 53.333 0 95.666 51 126.999 153s47 249 47 441v471c0 109.333-59 164-177 164h-24z"/><glyph glyph-name="afii10030" unicode="М" horiz-adv-x="2027" d="m1512 1406 426-.005v-37c-60.667-1.333-105.667-8.833-135-22.5s-48.333-32.5-57-56.5-13-75.667-13-155v-862c0-78 3.833-128.833 11.5-152.5s26.334-43.5 56.001-59.5 75.5-24 137.5-24v-37h-633v37c61.333 0 107.166 7.833 137.499 23.5s49.5 35.334 57.5 59.001 12 74.834 12 153.501v907L967-.003h-35l-547 1180v-907c0-78.667 3.833-129.667 11.5-153s26-42.666 55-57.999S524 38.332 582 37V0H88v37c61.333 0 107 8 137 24s48.833 35.833 56.5 59.5S293 195 293 273v853c0 61.333-5.333 106.333-16 135s-31.167 52.334-61.5 71.001-72.833 31-127.5 37v37h431l499-1074z"/><glyph glyph-name="afii10031" unicode="Н" horiz-adv-x="1685" d="m496 679-.004-406c0-78.667 4-129.834 12-153.501s27-43.334 57-59.001 76-23.5 138-23.5v-37h-631v37c60 0 104.833 8 134.5 24s48.334 35.833 56.001 59.5 11.5 74.5 11.5 152.5v861c0 80.667-4.5 132.834-13.5 156.501s-27.833 42.334-56.5 56.001-72.667 21.167-132 22.5v37h631v-37c-60.667-1.333-105.667-8.666-135-21.999s-48.666-32-57.999-56-14-76.333-14-157v-369h692v369c0 80.667-4.5 132.834-13.5 156.501s-28.167 42.5-57.5 56.5-75.666 21.333-138.999 22v37h636v-37c-59.333-1.333-103.5-8.5-132.5-21.5s-48.167-31.667-57.5-56-14-76.833-14-157.5v-861c0-78 4-128.833 12-152.5s26.833-43.5 56.5-59.5 74.834-24 135.501-24v-37H978v37c62.667.667 109 8.167 139 22.5s49.333 33.666 58 57.999 13 76.166 13 155.499v406H496z"/><glyph glyph-name="afii10032" unicode="О" horiz-adv-x="1579" d="M1503 706c0-112.667-26-225.667-78-339s-136-208-252-284S930.667-31 794-31c-191.333 0-359 70.667-503 212S75 496.666 75 703.999c0 200 69.5 372.333 208.5 517s307.167 217 504.5 217c196 0 364.167-71.167 504.5-213.5S1503 909.333 1503 706zm-253-7c0 192-39.834 349.667-119.501 473s-194.5 185-344.5 185c-148.667 0-262.167-60.5-340.5-181.5s-117.5-277.167-117.5-468.5c0-202 42.5-362.333 127.5-481s196.833-178 335.5-178c136.667 0 247.334 58.5 332.001 175.5S1250 499 1250 699z"/><glyph glyph-name="afii10033" unicode="П" horiz-adv-x="1675" d="m1180 1319-684.999.001v-1095c0-48 4.167-83.333 12.5-106S532.667 76.167 558 60.5 613 37 647 37h53V0H72v37h32c112.667 0 169 58.333 169 175v990c0 59.333-14.5 102-43.5 128S148 1369 72 1369v37h1531v-37h-26c-54.667 0-97.5-11.667-128.5-35s-46.5-69-46.5-137V188c0-100.667 56.667-151 170-151h31V0H975v37h53c34.667 0 64.167 7.5 88.5 22.5s41 33.833 50 56.5 13.5 58.667 13.5 108v1095z"/><glyph glyph-name="afii10034" unicode="Р" horiz-adv-x="1237" d="m472 673-.002-400.002c0-79.333 4.167-131 12.5-155s27.5-43.5 57.5-58.5 76.667-22.5 140-22.5v-37h-632v37c58.667.667 102.667 8.667 132 24s48 34.833 56 58.5 12 74.834 12 153.501v861c0 80.667-4.5 132.834-13.5 156.501s-27.667 42.334-56 56.001-71.833 21.167-130.5 22.5v37h599c180.667 0 317.334-39.5 410.001-118.5s139-171.167 139-276.5c0-102.667-41.833-192.334-125.5-269.001s-193.5-115-329.5-115c-81.333 0-171.666 15.333-270.999 46zm-.002 629-.001-558.999c68.667-26.667 126.334-40 173.001-40 90.667 0 163.167 28 217.5 84s81.5 128.667 81.5 218c0 99.333-31.5 178.166-94.5 236.499s-138.833 87.5-227.5 87.5c-47.333 0-97.333-9-150-27z"/><glyph glyph-name="afii10035" unicode="С" horiz-adv-x="1473" d="m1360 1439 32.999-475.999h-33c-26 137.333-86.667 238.666-182 303.999s-198 98-308 98c-152.667 0-278.5-56-377.5-168s-148.5-284.333-148.5-517c0-204.667 54.333-359.5 163-464.5s240-157.5 394-157.5c113.333 0 213.333 28.667 300 86s150.667 121 192 191l31-20c-136.667-230.667-335.667-346-597-346C619.666-31 443.833 38.333 299.5 177S83 484.667 83 684c0 210 74.167 388.167 222.5 534.5S635.333 1438 850 1438c116.667 0 229.667-25.333 339-76 24-10.667 43-16 57-16 33.333 0 59 31 77 93h37z"/><glyph glyph-name="afii10036" unicode="Т" horiz-adv-x="1366" d="M62 1406h1238l20-318h-40c-12 92.667-42.333 154-91 184s-118 45-208 45H792V273c0-78 3.833-128.833 11.5-152.5S829.834 77 859.501 61s75.834-24 138.501-24V0h-631v37c60 0 105 8.167 135 24.5s48.667 36.333 56 60 11 74.167 11 151.5v1044h-182c-74.667 0-128.667-5-162-15s-64.166-34.167-92.499-72.5-44.5-85.5-48.5-141.5h-37z"/><glyph glyph-name="afii10037" unicode="У" horiz-adv-x="1497" d="m6 1406 598-.001v-37h-25c-90.667 0-136-26.667-136-80 0-18.667 10.333-46 31-82l402-713 299 691c20.667 48.667 31 82 31 100 0 56-40.333 84-121 84h-26v37h432v-37c-97.333-11.333-173.333-78.333-228-201l-407-913c-84.667-190.667-211.667-286-381-286-60 0-105.333 12.333-136 37s-46 52-46 82c0 68 35.333 102 106 102 41.333 0 87.333-20.333 138-61 26-20.667 46.667-31 62-31 48.667 0 100 49.333 154 148l-521 949c-38.667 70.667-75 117.334-109 140.001s-73 34-117 34v37z"/><glyph glyph-name="afii10038" unicode="Ф" horiz-adv-x="1780" d="M577 1406h627.002v-37c-77.333-1.333-130.5-14.833-159.5-40.5s-43.5-67.167-43.5-124.5c39.333.667 72.333 1 99 1 193.333 0 342.166-46.5 446.499-139.5s156.5-210.167 156.5-351.5-53.333-260.333-160-357-253-145-439-145c-22 0-56.333 1.333-103 4 0-76 16.333-124.833 49-146.5s84-32.5 154-32.5V0h-627v37c69.333 0 120.5 10.667 153.5 32s49.5 70.333 49.5 147c-48-2.667-87.667-4-119-4-167.333 0-306.333 46.5-417 139.5s-166 213.833-166 362.5c0 143.333 52.667 261 158 353S492.667 1205 690 1205c20 0 50-.333 90-1 0 58.667-15 100.5-45 125.5s-82.667 38.167-158 39.5v37zm424-271V286c24-7.333 51-11 81-11 130.667 0 229.5 41.5 296.5 124.5S1479 588 1479 716c0 136-35.833 241.167-107.5 315.5S1203.333 1143 1082 1143c-28 0-55-2.667-81-8zm-220.998 0c-28 5.333-55 7.999-81 7.999-122 0-218.833-37.167-290.5-111.5s-107.5-179.5-107.5-315.5c0-127.333 33.333-232.666 100-315.999s165.667-125 297-125c30.667 0 58 3.667 82 11v849z"/><glyph glyph-name="afii10039" unicode="Х" horiz-adv-x="1579" d="m28 1406 659.002-.001v-37c-94.667 0-142-26.333-142-79 0-24.667 15.667-58.667 47-102l239-331 288 348c26 31.333 39 59.333 39 84 0 53.333-46.667 80-140 80v37h485v-37c-48.667 0-87.334-7-116.001-21s-55-33.5-79-58.5-90-100.833-198-227.5l-227-278 316-439c102-141.333 171.833-228 209.5-260s85.834-48 144.501-48v-37h-624v37c91.333 0 137 25 137 75 0 28.667-17.667 66.667-53 114l-23 31-254 353-334-402c-32-39.333-48-70.666-48-93.999 0-50 45-75.667 135-77V0h-461v37c44 .667 87.667 16.167 131 46.5s96.666 82.833 159.999 157.5l368 441-324 445c-75.333 104-133.833 170.167-175.5 198.5S92.667 1368.333 28 1369v37z"/><glyph glyph-name="afii10040" unicode="Ц" horiz-adv-x="1685" d="m1601 37-.001-430.999h-35c-30 130.667-78.667 229-146 295s-186 99-356 99h-988v37c71.333 0 122.166 14.167 152.499 42.5s45.5 80.166 45.5 155.499v971c0 55.333-12.333 96.333-37 123s-67.667 40-129 40h-32v37h625v-37h-45c-56 0-96.833-15.5-122.5-46.5s-38.5-81.167-38.5-150.5V204c0-49.333 5.667-81 17-95s41.333-21 90-21h473c46.667 0 76.167 6 88.5 18s18.5 42.333 18.5 91v1009c0 108.667-55 163-165 163h-41v37h625v-37h-35c-49.333 0-88.666-10.667-117.999-32s-44-68-44-140V230c0-54.667 5.333-94.167 16-118.5S1448.333 68.667 1473 56s60.667-19 108-19h20z"/><glyph glyph-name="afii10041" unicode="Ч" horiz-adv-x="1530" d="M36 1406h630v-37c-69.333 0-121-11.5-155-34.5s-51-65.833-51-128.5V862c0-85.333 21.5-143.666 64.5-174.999s98.833-47 167.5-47c90.667 0 205 27.667 343 83v466c0 74-17.333 122.5-52 145.5s-86 34.5-154 34.5v37h630v-37c-68.667 0-119.667-11.333-153-34s-50-68.667-50-138v-1003c0-104.667 57-157 171-157h32v-37H829v37h31c65.333 0 110.833 14.667 136.5 44s38.5 76.333 38.5 141v423c-164-77.333-309.667-116-437-116-85.333 0-154.833 13.5-208.5 40.5s-92.167 61.167-115.5 102.5S239 776.667 239 862v344c0 55.333-15.167 96.333-45.5 123s-82.833 40-157.5 40v37z"/><glyph glyph-name="afii10042" unicode="Ш" horiz-adv-x="2298" d="m73 1406 584-.003v-37c-55.333 0-98.833-11.667-130.5-35s-47.5-74.666-47.5-153.999v-990c0-42 6.833-69.5 20.5-82.5s43.834-19.5 90.501-19.5h337c46 0 76 6.5 90 19.5s21 40.5 21 82.5v990c0 64.667-12.167 112.334-36.5 143.001s-71.5 46-141.5 46v37h578v-37c-42 0-77.333-7.167-106-21.5s-47.834-33-57.501-56-14.5-60.167-14.5-111.5V190c0-42 6.833-69.5 20.5-82.5S1324.667 88 1372 88h336c46.667 0 77 6.5 91 19.5s21 40.5 21 82.5v990c0 64.667-12.667 112.334-38 143.001s-72 46-140 46v37h583v-37c-68 0-115.5-14-142.5-42s-40.5-77-40.5-147V212c0-62.667 14.167-107.5 42.5-134.5S2159.666 37 2225 37V0H73v37c122.667 0 184 53.667 184 161v995c0 117.333-54.333 176-163 176H73v37z"/><glyph glyph-name="afii10043" unicode="Щ" horiz-adv-x="2298" d="m73 0 .002 36.997c122.667 0 184 53.667 184 161v995c0 117.333-54.333 176-163 176h-21v37h584v-37c-55.333 0-98.833-11.667-130.5-35s-47.5-74.666-47.5-153.999v-990c0-42 6.833-69.5 20.5-82.5s43.834-19.5 90.501-19.5h337c46 0 76 6.5 90 19.5s21 40.5 21 82.5v990c0 64.667-12.167 112.334-36.5 143.001s-71.5 46-141.5 46v37h578v-37c-42 0-77.333-7.167-106-21.5s-47.834-33-57.501-56-14.5-60.167-14.5-111.5V190c0-42 6.833-69.5 20.5-82.5s44.167-19.5 91.5-19.5h336c46.667 0 77 6.5 91 19.5s21 40.5 21 82.5v990c0 64.667-12.667 112.334-38 143.001s-72 46-140 46v37h583v-37c-68 0-115.5-14-142.5-42s-40.5-77-40.5-147V212c0-62.667 14.167-107.5 42.5-134.5s75.166-40.5 140.5-40.5v-431h-37c-28.667 128.667-76.334 226.5-143.001 293.5S1859.667 0 1689 0H73z"/><glyph glyph-name="afii10044" unicode="Ъ" horiz-adv-x="1550" d="m502 1319-131-.002c-92.667 0-161.5-17-206.5-51s-74.833-97.333-89.5-190H38l27 328h862v-37h-31c-67.333 0-112.833-15.167-136.5-45.5s-35.5-82.166-35.5-155.499v-390h120c219.333 0 378.5-36.5 477.5-109.5s148.5-167.5 148.5-283.5c0-93.333-39.5-180.833-118.5-262.5S1143-.001 963-.001H301v37c59.333 1.333 103.5 9.333 132.5 24s47.667 33.834 56 57.501S502 193.667 502 273v1046zm222-624.002V91.997c45.333-11.333 97-17 155-17 92 0 171.333 28.667 238 86s100 139 100 245c0 96.667-34.667 170.334-104 221.001s-163 76-281 76c-42 0-78-2.667-108-8z"/><glyph glyph-name="afii10045" unicode="Ы" horiz-adv-x="2009" d="m77 1369-.002 37.001h623v-37h-30c-115.333 0-173-48.333-173-145v-446h120c219.333 0 378.5-36.333 477.5-109s148.5-167.334 148.5-284.001c0-94-39.5-181.667-118.5-263S915.998 0 735.998 0h-659v37h30c60 0 103.167 13.833 129.5 41.5s39.5 74.5 39.5 140.5v973c0 48.667-8.667 86-26 112s-36.666 42.833-57.999 50.5S132.333 1367 77 1369zm419.998-673.999V92.002c45.333-11.333 95.333-17 150-17 95.333 0 176.333 28.167 243 84.5s100 137.166 100 242.499-37.333 181.833-112 229.5-164.667 71.5-270 71.5c-35.333 0-72.333-2.667-111-8zM1295 1369l.003 36.999h647v-37c-63.333-.667-109.833-7.667-139.5-21s-49.334-32.166-59.001-56.499-14.5-76.833-14.5-157.5V273c0-79.333 4.333-131 13-155s28-43.5 58-58.5 77.333-22.5 142-22.5V0h-647v37c62.667.667 109.167 7.834 139.5 21.501s50.166 32.667 59.499 57 14 76.833 14 157.5v861c0 81.333-4.833 134.166-14.5 158.499s-29.334 43-59.001 56-76.167 19.833-139.5 20.5z"/><glyph glyph-name="afii10046" unicode="Ь" horiz-adv-x="1323" d="m72 1369-.002 37.001h623v-37h-30c-115.333 0-173-48.333-173-145v-446h120c219.333 0 378.5-36.333 477.5-109s148.5-167.334 148.5-284.001c0-94-39.5-181.667-118.5-263S910.998 0 730.998 0h-659v37h30c60 0 103.167 13.833 129.5 41.5s39.5 74.5 39.5 140.5v973c0 48.667-8.667 86-26 112s-36.666 42.833-57.999 50.5S127.333 1367 72 1369zm419.998-673.999V92.002c45.333-11.333 95.333-17 150-17 95.333 0 176.333 28.167 243 84.5s100 137.166 100 242.499-37.333 181.833-112 229.5-164.667 71.5-270 71.5c-35.333 0-72.333-2.667-111-8z"/><glyph glyph-name="afii10047" unicode="Э" horiz-adv-x="1429" d="M97 1438 69.002 958.002h37c23.333 131.333 81.166 232.166 173.499 302.499s195.5 105.5 309.5 105.5c149.333 0 271-57.833 365-173.5s143.667-257.5 149-425.5h-617v-88h617c-1.333-200.667-54.5-354.167-159.5-460.5s-233.5-159.5-385.5-159.5c-192.667 0-355.667 91.667-489 275l-24-26c59.333-102.667 140-184.834 242-246.501s215.333-92.5 340-92.5c111.333 0 224.5 27.333 339.5 82s208.667 139 281 253 108.5 243.333 108.5 388c0 206.667-73.833 382.667-221.5 528S807.667 1438 597 1438c-95.333 0-192.333-21-291-63-50-21.333-81.333-32-94-32-36 0-62 31.667-78 95H97z"/><glyph glyph-name="afii10048" unicode="Ю" horiz-adv-x="2261" d="m496 765 305.001.001c10 176.667 80.333 333 211 469s291.667 204 483 204c123.333 0 234.166-29.167 332.499-87.5s183-142.5 254-252.5 106.5-239.333 106.5-388c0-212.667-69.5-389.334-208.5-530.001S1681.333-31 1502-31c-102 0-208.667 28.333-320 85S979.667 195.167 909 307.5 802.333 543 801 677H496V219c0-68.667 14.167-116.167 42.5-142.5S618.333 37 693 37V0H77v37c68.667 1.333 118.667 14.5 150 39.5s47 70.167 47 135.5v988c0 58-14.667 100.667-44 128s-80.333 41-153 41v37h616v-37c-76 0-127.833-12.833-155.5-38.5S496 1256.333 496 1185V765zm1017 586c-137.333 0-248.333-52.668-333-158.001s-127-271-127-497c0-210.667 40.667-370.167 122-478.5s187.333-162.5 318-162.5c94 0 174.167 26.667 240.5 80s116.5 122.5 150.5 207.5 51 202.167 51 351.5c0 148.667-16.167 267.834-48.5 357.501s-81.5 162-147.5 217-141.333 82.5-226 82.5z"/><glyph glyph-name="afii10049" unicode="Я" horiz-adv-x="1534" d="M676 680 358 287c-74-92-134.5-155.167-181.5-189.5S75.333 43 14 37V0h367l532 660c10-1.333 21.333-2 34-2 47.333 0 80.333.667 99 2V273c0-78-3.833-128.833-11.5-152.5s-25.834-43.167-54.501-58.5-72.334-23.666-131.001-24.999v-37h614v37c-56 2-98.167 10.167-126.5 24.5s-46.833 33.333-55.5 57-13 75.167-13 154.5v861c0 76 3.333 125.167 10 147.5s23.334 41.833 50.001 58.5 63.334 26 110.001 28l25 1v37H818c-175.333 0-302.333-36.833-381-110.5S319 1136.667 319 1040c0-178 119-298 357-360zm370 618V729c-316 0-474 101.333-474 304 0 80 29.167 150.333 87.5 211s134.5 91 228.5 91c50 0 102.667-12.333 158-37z"/><glyph glyph-name="afii10065" unicode="а" d="m989 179 .001-51.999c-82-103.333-158.667-155-230-155-84 0-127.333 57.333-130 172-59.333-57.333-116.833-100.333-172.5-129s-109.5-43-161.5-43c-60 0-110.5 22.667-151.5 68s-61.5 100-61.5 164c0 85.333 41.833 158.833 125.5 220.5s224.167 126.167 421.5 193.5c-.667 94.667-3.834 159.5-9.501 194.5s-21.834 63.333-48.501 85-68.667 32.5-126 32.5c-45.333 0-83-12.333-113-37s-45-58-45-100c0-9.333.667-20.333 2-33 .667-9.333 1-18 1-26 0-57.333-26.667-86-80-86-59.333 0-89 28.333-89 85 0 67.333 33 124 99 170s154.333 69 265 69c82 0 146.833-11.5 194.5-34.5s78.834-53.833 93.501-92.5S795 746.667 795 666V190c0-64.667 20-97 60-97 39.333 0 84 28.667 134 86zm-359.999 11.001-.003 373c-152-62.667-252.667-114.5-302-155.5s-74-91.5-74-151.5c0-46 14.833-85.333 44.5-118s66.834-49 111.501-49c34.667 0 70.334 8.5 107.001 25.5s74.334 42.167 113.001 75.5z"/><glyph glyph-name="afii10066" unicode="б" horiz-adv-x="1131" d="m989 1456 36.995.002c-18.667-57.333-44.334-101.833-77-133.5s-71.168-52.667-115.5-63-114.5-15.833-210.5-16.5c-85.334-1.333-149.167-8.5-191.5-21.5s-83.666-42.833-123.999-89.5-73-113.834-98-201.501-40.833-188.834-47.5-303.501c30.667 109.333 84.334 194.166 161.001 254.499s163.334 90.5 260.001 90.5c111.333 0 215-42.5 311-127.5s144-200.5 144-346.5c0-145.333-47-269.333-141-372s-204.333-154-331-154c-131.333 0-241.833 51-331.5 153s-134.5 244-134.5 426c0 152 15.667 287.833 47 407.5s72.833 214.334 124.5 284.001 107.834 115.667 168.501 138 148.667 33.5 264 33.5l148-1c72.667 0 118.334 14.333 137.001 43zM290.995 529.002c0-168 31.335-291.666 94.002-370.999s135-119 217-119c63.333 0 121.333 29.5 174 88.5s79 153.833 79 284.5c0 141.333-29.333 257.166-88 347.499s-133.334 135.5-224.001 135.5c-68.667 0-127.834-28-177.501-84s-74.5-150-74.5-282z"/><glyph glyph-name="afii10067" unicode="в" d="M59 950h440c141.333 0 241.833-20 301.5-60S890 787.667 890 703c0-52.667-15.333-95.667-46-129s-77-57.333-139-72c80-14.667 140-41.5 180-80.5s60-89.833 60-152.5c0-52-14.5-97.833-43.5-137.5S829.833 60 773.5 36 625.667 0 499 0H59v37c52.667 2 91.5 13.5 116.5 34.5S213 137 213 205v554c0 58-11.833 98.167-35.5 120.5S114.333 913 59 913v37zm318-426c18.667-1.333 36.334-2 53.001-2 93.333 0 163.333 15.667 210 47s70 78.333 70 141c0 58.667-21.833 102.5-65.5 131.5S535.334 885 448.001 885c-18.667 0-42.334-.333-71.001-1V524zm0-438c48-13.333 92.001-20 132.001-20 67.333 0 124.833 19.333 172.5 58s71.5 87 71.5 145c0 62.667-25.333 110.167-76 142.5s-118 48.5-202 48.5c-26.667 0-59.334-.333-98.001-1V86z"/><glyph glyph-name="afii10068" unicode="г" horiz-adv-x="907" d="m52 0-.001 37c65.333 0 108.333 13.5 129 40.5s31 71.5 31 133.5v572c0 44.667-8.333 77.5-25 98.5s-61.667 31.5-135 31.5v37h791l37-253h-43c-17.333 76.667-37.333 127-60 151s-61.667 36-117 36h-283V230c0-79.333 11.833-131.333 35.5-156S482.333 37 551 37V0H52z"/><glyph glyph-name="afii10069" unicode="д" horiz-adv-x="1087" d="m11-254 .002 291.003c65.333.667 119.5 24.167 162.5 70.5s81.167 131.666 114.5 255.999 50 251.833 50 382.5c0 63.333-11.333 106.666-34 129.999S241.668 911.667 185.001 913v37h852v-37c-53.333 0-92.166-11-116.499-33s-36.5-74-36.5-156V178c0-94 51-141 153-141v-291h-37c-.667 68-23.834 127.333-69.501 178S814.667 0 720 0H323C157.667 0 66-84.667 48-254H11zM401.002 885.003c0-401.333-58.333-674.333-175-819h397c44 0 71.167 5.667 81.5 17s15.5 40 15.5 86v716h-319z"/><glyph glyph-name="afii10070" unicode="е" horiz-adv-x="897" d="M848 334c-22-112.667-68.169-201.166-138.502-265.499s-151.5-96.5-243.5-96.5c-110 0-204.333 42.833-283 128.5s-118 206.5-118 362.5c0 151.333 38.333 274 115 368s179.334 141 308.001 141c108.667 0 195.834-35.5 261.501-106.5s98.5-161.833 98.5-272.5H205c-.667-16.667-1-29.334-1-38.001 0-102 31-198 93-288s144-135 246-135c131.333 0 222.333 73 273 219zM635.998 656.001c-2 78-21.833 138-59.5 180s-85.5 63-143.5 63c-58.667 0-109-22-151-66s-66.333-103-73-177h427z"/><glyph glyph-name="afii10072" unicode="ж" horiz-adv-x="1466" d="m956 950 .003-36.998c-52.667 0-88.5-10.833-107.5-32.5s-28.5-61.5-28.5-119.5v-231h34c48.667 0 88.5 14.5 119.5 43.5s59.833 82.167 86.5 159.5c30.667 87.333 62.834 146.833 96.5 178.5s79.168 47.5 136.5 47.5c34 0 61-10.5 81-31.5s30-43.167 30-66.5-8.832-42.833-26.5-58.5-38.5-23.5-62.5-23.5c-14.666 0-36.333 5.667-65 17-20.667 8-37.667 12-51 12-35.333 0-64.333-32-87-96-24.667-70.667-44-116.834-58-138.501s-36.667-40.834-68-57.501c74-23.333 136.667-89.666 188-198.999l12-22 67-120c49.333-88.667 106.666-134.667 171.999-138v-37h-257l-207 361c-44 76.667-83.667 115-119 115-6 0-13.333-.667-22-2v-287c0-59.333 9.5-98.833 28.5-118.5s54.833-30.167 107.5-31.5v-37h-445v37c53.333 1.333 89.333 12 108 32s28 59.333 28 118v287c-8.667 1.333-15.667 2-21 2-36.667 0-76.667-38.333-120-115l-207-361h-257v37c65.333 3.333 123 49.333 173 138l66 120 12 22c58 115.333 120.667 181.666 188 198.999-31.333 16.667-54.166 36-68.5 58s-33.5 68-57.5 138c-22.666 64-51 96-85 96-14.666 0-32.333-4-53-12-28.667-11.333-50.334-17-65.001-17-23.333 0-44 7.833-62 23.5S63 837.667 63 861c0 24 10.167 46.333 30.5 67s47.166 31 80.499 31c56.667 0 102.167-15.833 136.5-47.5S377 820.333 407 733c28-81.333 58-135.5 90-162.5S567.667 530 613 530h34v231c0 58-9.5 97.833-28.5 119.5S563.667 913 511 913v37h445z"/><glyph glyph-name="afii10073" unicode="з" horiz-adv-x="854" d="m86 950 37.002-.001c17.333-12 31.666-18 42.999-18 16 0 38.667 4.667 68 14 52.667 17.333 110.667 26 174 26 110 0 194.5-23 253.5-69s88.5-102.333 88.5-169c0-114-84.333-187.667-253-221 195.333-31.333 293-118.333 293-261 0-83.333-36.833-150.833-110.5-202.5S512.667-28.001 400-28.001c-144.667 0-267 58.333-367 175l26 24c106.667-83.333 213-125 319-125 63.333 0 115.833 20.167 157.5 60.5S598 199.665 598 264.998c0 62-23.167 112.833-69.5 152.5s-113.166 59.5-200.499 59.5v62c72 0 130.5 16.833 175.5 50.5s67.5 82.834 67.5 147.501c0 56.667-18.833 101.834-56.5 135.501s-85.167 50.5-142.5 50.5C243.334 923 158.667 835.667 118 661H80z"/><glyph glyph-name="afii10074" unicode="и" horiz-adv-x="1157" d="m52 950 449.003-.002v-37c-52.667 0-88.334-11-107.001-33s-28-62-28-120v-486l424 500c0 92.667-45 139-135 139v37h449v-37c-56-2-94.833-14-116.5-36s-32.5-61-32.5-117v-560c0-59.333 11.333-100.666 34-123.999s61-36.333 115-39v-37h-449v37c53.333 0 89.166 11.5 107.499 34.5s27.5 61.5 27.5 115.5v495l-424-495c0-58.667 9.167-98 27.5-118s54.166-30.667 107.499-32v-37H52v37c99.333.667 149 50.667 149 150v573c0 64.667-12.167 106.334-36.5 125.001S102.667 913 52 913v37z"/><glyph glyph-name="afii10075" unicode="й" horiz-adv-x="1157" d="M263 1315c0 51.333 23.333 76.999 70 76.999 43.333 0 82-41 116-123 29.333-70.667 76-106 140-106 42 0 73.667 9.333 95 28 21.333 18 41.333 50 60 96 28 70 62.333 105 103 105 20.667 0 38-7.167 52-21.5s21-32.166 21-53.499c0-51.333-33.833-99-101.5-143S675 1108 591 1108c-110 0-192.167 20-246.5 60s-81.5 89-81.5 147zM52 949.999l449.003-.002v-37c-52.667 0-88.334-11-107.001-33s-28-62-28-120v-486l424 500c0 92.667-45 139-135 139v37h449v-37c-56-2-94.833-14-116.5-36s-32.5-61-32.5-117v-560c0-59.333 11.333-100.666 34-123.999s61-36.333 115-39v-37h-449v37c53.333 0 89.166 11.5 107.499 34.5s27.5 61.5 27.5 115.5v495l-424-495c0-58.667 9.167-98 27.5-118s54.166-30.667 107.499-32v-37H52v37c99.333.667 149 50.667 149 150v573c0 64.667-12.167 106.334-36.5 125.001s-61.833 28-112.5 28v37z"/><glyph glyph-name="afii10076" unicode="к" horiz-adv-x="1075" d="m56 950 469.001.002v-37c-55.333 0-94-12.833-116-38.5s-33-68.167-33-127.5v-211c18-.667 31.333-1 40-1 103.333 0 175.333 64.667 216 194 49.333 154.667 125.333 232 228 232 41.333 0 72.833-10.167 94.5-30.5s32.5-42.166 32.5-65.499c0-22-8.333-41.833-25-59.5s-39.667-26.5-69-26.5c-13.333 0-29 3.333-47 10-28.667 10.667-51 16-67 16-23.333 0-41.5-7-54.5-21s-25.833-43.667-38.5-89c-24-81.333-59.333-138-106-170 49.333-15.333 102.666-73.333 159.999-174 3.333-6 7-12 11-18l106-169c36-56.667 66.667-91.834 92-105.501s52-20.834 80-21.501v-37H764l-253 406c-30 48.667-60.667 73-92 73-10 0-24.333-1.667-43-5v-287c0-99.333 49.667-149.333 149-150v-37H56v37c58 2 98.333 14.167 121 36.5S211 133.667 211 187v560c0 66.667-12.167 111-36.5 133S110.667 913 56 913v37z"/><glyph glyph-name="afii10077" unicode="л" horiz-adv-x="1085" d="m151 950 880 .002v-37c-48.667 0-87-10-115-30s-42-65.667-42-137v-532c0-61.333 11.167-106.166 33.5-134.499s63.5-42.5 123.5-42.5v-37H545v37c66 0 109.833 13.833 131.5 41.5s32.5 76.5 32.5 146.5v659H370v-504c0-144.667-17.5-248.834-52.5-312.501s-94.5-95.5-178.5-95.5c-87.333 0-131 37.667-131 113 0 22.667 7.167 41 21.5 55s30.5 21 48.5 21c27.333 0 56-16.333 86-49 13.333-14 28.333-21 45-21 32.667 0 56.667 24.333 72 73s23 133 23 253v329c0 47.333-4.167 80.666-12.5 99.999S266.667 881.167 242 893.5s-55 18.833-91 19.5v37z"/><glyph glyph-name="afii10078" unicode="м" horiz-adv-x="1364" d="m375 950 301.999-718.002 318 718h315v-37c-57.333 0-96.5-12.667-117.5-38s-31.5-76-31.5-152v-536c0-100 49.667-150 149-150v-37h-456v37c40.667 1.333 74.334 10.5 101.001 27.5s40 57.833 40 122.5v600l-349-787h-39l-340 787v-574c0-63.333 9.333-107.5 28-132.5s56.667-39.5 114-43.5v-37H52v37c57.333 2.667 96.5 16.334 117.5 41.001s31.5 69.667 31.5 135v538c0 56.667-11.167 97.834-33.5 123.501S106.667 913 52 913v37h323z"/><glyph glyph-name="afii10079" unicode="н" horiz-adv-x="1157" d="m366 526 424-.002v235c0 54-10 92.833-30 116.5s-55 35.5-105 35.5v37h449v-37c-56-2-94.833-14-116.5-36s-32.5-60.667-32.5-116v-561c0-59.333 11.333-100.666 34-123.999s61-36.333 115-39v-37H655v37c52.667 0 88.334 11.333 107.001 34s28 61.334 28 116.001v274h-424V187c0-58.667 9.167-98 27.5-118S447.667 38.333 501 37V0H52v37c99.333.667 149 50.667 149 150v574c0 64.667-12.333 106.167-37 124.5S102 913 52 913v37h449v-37c-52 0-87.5-10.833-106.5-32.5S366 819 366 761V526z"/><glyph glyph-name="afii10080" unicode="о" horiz-adv-x="1131" d="M1039 505c0-140.667-48.167-264.667-144.5-372S682.667-28 548-28c-122 0-228.667 45.833-320 137.5S91 314 91 448c0 132 46.667 252.333 140 361s210.333 163 351 163c123.333 0 230.333-46.5 321-139.5s136-202.167 136-327.5zm-185-85c0 129.333-29.002 241.834-87.002 337.501s-135.667 143.5-233 143.5c-79.333 0-142.166-33.167-188.499-99.5s-69.5-156.833-69.5-271.5c0-129.333 29.333-243 88-341s135.334-147 230.001-147c75.333 0 137.5 33.667 186.5 101S854 302.667 854 420z"/><glyph glyph-name="afii10081" unicode="п" horiz-adv-x="1157" d="m52 950 1052-.003v-37c-56-2-94.833-14-116.5-36s-32.5-61-32.5-117v-560c0-59.333 11.333-100.666 34-123.999s61-36.333 115-39v-37H655v37c52.667 0 88.334 11.333 107.001 34s28 61.334 28 116.001v697h-424V187c0-58.667 9.167-98 27.5-118S447.667 38.332 501 37V0H52v37c99.333.667 149 50.667 149 150v573c0 64.667-12.167 106.334-36.5 125.001S102.667 913 52 913v37z"/><glyph glyph-name="afii10082" unicode="р" horiz-adv-x="1131" d="M371 972V754.999c46.667 72.667 97.334 127 152.001 163s113 54 175 54c96 0 182-43.667 258-131s114-200 114-338c0-154-48-281-144-381s-204-150-324-150c-46.667 0-89.334 7.333-128.001 22S401 30.333 371 59v-261c0-76.667 12-127.834 36-153.501s70.333-38.5 139-38.5v-38H35v38c65.333 0 110 11.833 134 35.5S205-282.667 205-202v861c0 72-7.167 119.5-21.5 142.5S146.667 836 116 836c-17.333 0-39-4-65-12l-16 36 301 112h35zm0-280.001.001-352.002c0-78.667 6.833-136.167 20.5-172.5s40-67.666 79-93.999 83.167-39.5 132.5-39.5c88.667 0 159.167 36 211.5 108s78.5 168 78.5 288c0 112.667-25.333 207-76 283s-119.334 114-206.001 114c-43.333 0-85-11.167-125-33.5s-78.333-56.166-115-101.499z"/><glyph glyph-name="afii10083" unicode="с" horiz-adv-x="897" d="M874 354c-24.667-105.333-73.331-195.333-145.998-270s-157-112-253-112c-128 0-230.167 48.167-306.5 144.5S54.002 328.333 54.002 463c0 152.667 44.833 275.667 134.5 369s200.5 140 332.5 140c91.333 0 168.833-23.167 232.5-69.5s95.5-97.166 95.5-152.499c0-23.333-9.333-42.5-28-57.5s-42.334-22.5-71.001-22.5c-62 0-98 33.667-108 101-6.667 46.667-21.667 81.667-45 105-23.333 22.667-60.333 34-111 34-84.667 0-150.5-33.833-197.5-101.5s-70.5-151.5-70.5-251.5c0-124.667 29.667-225.834 89-303.501S446.667 137 548 137c148 0 245.667 77.333 293 232z"/><glyph glyph-name="afii10084" unicode="т" horiz-adv-x="975" d="m570 884 .002-693.001c0-52.667 11.667-91.167 35-115.5S667.668 38.333 723.001 37V0h-471v37c57.333 0 97.166 12 119.499 36S405 139.667 405 201v683H252c-53.333 0-91.833-11.333-115.5-34S92.333 776.333 75 697H32l37 253h837l37-253h-43c-17.333 77.333-37.5 127.833-60.5 151.5S777.667 884 723 884H570z"/><glyph glyph-name="afii10085" unicode="у" d="m34 950 424.003.001v-37c-40.667-1.333-69.334-7.5-86.001-18.5s-25-29.5-25-55.5 6.333-53.667 19-83l232-518 159 433c39.333 105.333 59 165.666 59 180.999 0 34.667-31.667 55-95 61v37h271v-37c-30.667-4.667-54.167-19.5-70.5-44.5s-44.833-90.833-85.5-197.5l-258-699c-58.667-159.333-116.834-266.833-174.501-322.5S281.667-434 211-434c-40 0-72.833 10.333-98.5 31S74-355.666 74-322.999c0 28 10 50.833 30 68.5s45.667 26.5 77 26.5c20 0 51.333-9 94-27 18.667-7.333 34.334-11 47.001-11 59.333 0 114.666 68 165.999 204l32 83-330 735C144.667 857.334 92.667 909.667 34 913v37z"/><glyph glyph-name="afii10086" unicode="ф" horiz-adv-x="1366" d="m923-394-.003-37.997h-474v38c58.667 0 98.667 13.167 120 39.5s32 68.166 32 125.499v294C571.664 34.335 540.831 11.168 508.498-4.5s-66.5-23.5-102.5-23.5c-88.667 0-166.167 47.667-232.5 143S73.998 329.667 73.998 473c0 140.667 32.5 259 97.5 355s142.833 144 233.5 144c34.667 0 68.334-7.667 101.001-23s64.334-38.666 95.001-70v343c0 70.668-22 106-66 106-16 0-39.333-5.332-70-16l-16 32 279 125h37V879c29.333 31.334 60.333 54.667 93 70s67 23 103 23c82.667 0 158.5-45 227.5-135S1292 624.333 1292 469c0-148.667-33.5-268.667-100.5-360S1047.667-28 961-28c-34 0-67.333 7.833-100 23.5S796.333 34.334 765 65v-306c0-56 12-95.832 36-119.5s64.667-34.833 122-33.5zM600.997 815.003c-28.667 30-56 52.333-82 67s-50.333 22-73 22c-64.667 0-113.334-35.833-146.001-107.5s-49-179.5-49-323.5 16.5-252 49.5-324 82.167-108 147.5-108c22.667 0 46.834 7.333 72.501 22s52.5 36.667 80.5 66v686zm164-686c27.333-29.333 53.667-51.5 79-66.5s49.333-22.5 72-22.5c66.667 0 116.5 35.333 149.5 106s49.5 176.667 49.5 318c0 146.667-16.333 256.667-49 330s-81.667 110-147 110c-23.333 0-47.833-7.333-73.5-22s-52.5-37-80.5-67v-686z"/><glyph glyph-name="afii10087" unicode="х" d="m46 950 428.001-.001v-37c-52-3.333-78-20.333-78-51 0-18 13.333-48 40-90l87-138 98 145c24 36 36 63 36 81 0 32.667-25 50.334-75 53.001v37h315v-37c-70-.667-148.333-65-235-193l-100-148 160-253C777.334 231 825.667 162.5 867 113.5S949.333 39 990 37V0H571v37c58 0 87 15.667 87 47 0 20.667-19.667 62.667-59 126L463 426 288 167c-22.667-34-34-60.333-34-79 0-34 30.333-51 91-51V0H35v37c59.333 4 128.333 64.333 207 181l182 269-161 253c-36 56.667-69.167 99.5-99.5 128.5S94 912.333 46 913v37z"/><glyph glyph-name="afii10088" unicode="ц" horiz-adv-x="1161" d="M55 950h449v-37c-52 0-87.667-10.833-107-32.5s-29-61.834-29-120.501v-610c0-40.667 6.333-64.834 19-72.501s42.334-11.5 89.001-11.5h232c39.333 0 63.333 5 72 15s13 35 13 75v604c0 54.667-9.833 93.834-29.5 117.501s-54.834 35.5-105.501 35.5v37h446v-37c-54.667-2-92.667-14-114-36s-32-61-32-117v-585c0-56 12.333-93 37-111s61-27 109-27v-291h-38c-10 169.333-103.333 254-280 254H55v37c99.333.667 149 50.667 149 150v573c0 64.667-12.167 106.334-36.5 125.001S105.667 913 55 913v37z"/><glyph glyph-name="afii10089" unicode="ч" horiz-adv-x="1087" d="M38 950h435.999v-37c-52.667 0-88.5-11-107.5-33s-28.5-61.667-28.5-119V591c0-54 10.333-91 31-111s65-30 133-30c66.667 0 140.334 19.667 221.001 59v252c0 62-11.333 102.833-34 122.5S632.333 913 587 913v37h449v-37c-56-2-94.833-14-116.5-36S887 816.333 887 761V200c0-59.333 11.333-100.666 34-123.999s61-36.333 115-39v-37H564v37c57.333.667 98.166 12.667 122.499 36s36.5 61.333 36.5 114v270c-93.333-56.667-204-85-332-85-62 0-109.333 8.5-142 25.5s-53.5 37.667-62.5 62-13.5 68.166-13.5 131.499v170c0 61.333-11.167 102-33.5 122S83.333 913 38 913v37z"/><glyph glyph-name="afii10090" unicode="ш" horiz-adv-x="1659" d="m1606 950 .001-37.001c-56.667 0-94.834-14.167-114.501-42.5s-29.5-82.833-29.5-163.5v-523c0-49.333 11.167-86.166 33.5-110.499S1554.666 37 1605.999 37V0h-1554v37c50.667 2.667 87.167 15.334 109.5 38.001s33.5 62 33.5 118v573c0 54.667-10.667 92.5-32 113.5s-58.333 32.167-111 33.5v37h449v-37c-55.333-.667-92.666-13.834-111.999-39.501S360 804 360 742V176c0-50 5.5-80.833 16.5-92.5S416.333 66 463 66h191c42 0 68 6 78 18s15 42.667 15 92v590c0 50.667-10.167 87.834-30.5 111.501s-55.833 35.5-106.5 35.5v37h441v-37c-47.333 0-82.5-12.167-105.5-36.5s-34.5-73.5-34.5-147.5v-553c0-50 6-80.833 18-92.5s42.667-17.5 92-17.5h177c42.667 0 70 6 82 18s18 39.667 18 83v599c0 49.333-9.833 85.666-29.5 108.999s-56.167 36-109.5 38v37h447z"/><glyph glyph-name="afii10091" unicode="щ" horiz-adv-x="1659" d="m52 0 .001 36.997c50.667 2.667 87.167 15.334 109.5 38.001s33.5 62 33.5 118v573c0 54.667-10.667 92.5-32 113.5s-58.333 32.167-111 33.5v37h449v-37c-54.667-.667-91.834-13.667-111.501-39s-29.5-69.333-29.5-132v-566c0-49.333 5.5-80 16.5-92s39.833-18 86.5-18h191c42 0 68 6 78 18s15 42.667 15 92v590c0 50.667-10.167 87.834-30.5 111.501S660.667 913 610 913v37h441v-37c-47.333 0-82.5-12.167-105.5-36.5S911 803 911 729V176c0-50 6-80.833 18-92.5S971.667 66 1021 66h177c42.667 0 70 5.833 82 17.5s18 39.5 18 83.5v599c0 48.667-9.667 84.834-29 108.501s-56 36.5-110 38.5v37h447v-37c-56.667 0-94.834-14.167-114.501-42.5s-29.5-82.833-29.5-163.5V201c0-64.667 9.833-108.167 29.5-130.5S1549.333 37 1606 37v-291h-38C1558-84.667 1465 0 1289 0H52z"/><glyph glyph-name="afii10092" unicode="ъ" horiz-adv-x="1139" d="m81 950 622.001.001v-37c-57.333 0-100.833-10-130.5-30s-44.5-69-44.5-147v-197h117c105.333 0 186-7.333 242-22s102-42.834 138-84.501 54-91.5 54-149.5c0-70.667-31.833-135.5-95.5-194.5S809.667 0 653 0H205v37c57.333 0 98.166 12 122.499 36s36.5 62 36.5 114v697h-100c-54 0-92.667-11.667-116-35S104.333 775 87 697H44zM528.001 83.001c41.333-12 78-18 110-18 75.333 0 135.666 19.667 180.999 59s68 89.333 68 150c0 62-20.167 110.667-60.5 146s-96.166 53-167.499 53c-48 0-91.667-3.333-131-10v-380z"/><glyph glyph-name="afii10093" unicode="ы" horiz-adv-x="1473" d="m52 0-.002 37.003c56.667 0 97.334 11 122.001 33s37 61.667 37 119v574c0 53.333-11.167 91.666-33.5 114.999s-64.166 35-125.499 35v37h499v-37c-57.333 0-100.833-9.833-130.5-29.5S376 814.668 376 736V539h116c106 0 187-7.333 243-22s102-42.834 138-84.501S927 341 927 283c0-59.333-20.667-113-62-161s-89.5-80.333-144.5-97S584 0 476 0H52zm323.998 83.003c41.333-12 77.667-18 109-18 75.333 0 135.666 19.667 180.999 59s68 89.333 68 150c0 62-20.167 110.667-60.5 146s-96.166 53-167.499 53c-48 0-91.333-3.333-130-10v-380zm570.001 867 474 .001v-37c-58.667 0-99.167-12-121.5-36s-33.5-66.333-33.5-127v-571c0-52 11.667-88.667 35-110s63.333-32 120-32v-37h-474v37c56 0 95.667 10.667 119 32s35 58 35 110v571c0 58.667-11 100.167-33 124.5s-62.333 37.166-121 38.499v37z"/><glyph glyph-name="afii10094" unicode="ь" horiz-adv-x="1006" d="m380 539 115.998.003c106 0 187-7.333 243-22s102-42.834 138-84.501 54-91.5 54-149.5c0-59.333-20.667-113-62-161s-89.5-80.333-144.5-97-136.5-25-244.5-25h-424v37c56.667 0 97.334 11 122.001 33s37 61.667 37 119v574c0 53.333-11.167 91.666-33.5 114.999S117.333 913 56 913v37h499v-37c-57.333 0-100.833-9.833-130.5-29.5S380 814.667 380 736V539zm-.002-455.997c43.333-12 79.669-18 109.002-18 81.333 0 143.166 20.833 185.499 62.5s63.5 90.5 63.5 146.5c0 62-19.833 110.667-59.5 146s-95.834 53-168.501 53c-48 0-91.333-3.333-130-10v-380z"/><glyph glyph-name="afii10095" unicode="э" horiz-adv-x="911" d="M654 534H341.001v-63h313c-1.333-142-24.833-248.5-70.5-319.5S469.667 45 379 45C267.667 45 166 99.333 74 208l-31-23C149 43 272.667-28 414-28c120.667 0 222.834 48.5 306.501 145.5s125.5 222.5 125.5 376.5c0 150.667-42.833 268-128.5 352s-184.5 126-296.5 126c-52.667 0-107.334-10-164.001-30-34.667-12-60.667-18-78-18-18 0-33.333 5-46 15h-18V660h37c12.667 84.667 44.167 147 94.5 187S352 907 412 907c78 0 137.167-31 177.5-93s61.833-155.333 64.5-280z"/><glyph glyph-name="afii10096" unicode="ю" horiz-adv-x="1604" d="m372 522 232 .002c20 129.333 72.833 236.666 158.5 321.999s188.5 128 308.5 128c122.667 0 231.5-44.333 326.5-133s142.5-203.667 142.5-345c0-142-48.167-264.5-144.5-367.5s-210.833-154.5-343.5-154.5c-125.333 0-229.833 46.5-313.5 139.5S610 321.001 604 461.001H372v-282c0-51.333 12-87.833 36-109.5s63.667-32.5 119-32.5v-37H53v37c54.667 0 94.167 10.833 118.5 32.5s36.5 58.167 36.5 109.5v571c0 58.667-11.167 100.167-33.5 124.5S111.667 911.667 53 913v37h474v-37c-51.333 0-90-9.833-116-29.5s-39-64.167-39-133.5V522zm415 15.002c0-152 32.168-273 96.501-363s135.166-135 212.499-135c60.667 0 116.667 30.833 168 92.5s77 158.167 77 289.5c0 150.667-30.5 269.167-91.5 355.5s-133.5 129.5-217.5 129.5c-72 0-130.833-33.5-176.5-100.5s-68.5-156.5-68.5-268.5z"/><glyph glyph-name="afii10097" unicode="я" horiz-adv-x="997" d="m26 0 .001 37.003h21c42 0 78.667 23.333 110 70l235 348c-83.333 23.333-145.833 55.5-187.5 96.5s-62.5 90.833-62.5 149.5c0 62.667 28.5 119.834 85.5 171.5s151.833 77.5 284.5 77.5h434v-37c-52.667-4.666-88.834-20.333-108.501-47S808 792.669 808 726.002v-526C808 141.335 818 99.668 838 75S894 37.667 946 37V0H504v37c53.333 2 90 15.667 110 41s30 70 30 134v215h-83L265 0H26zm618.001 870.003c-34 10-68.333 15-103 15-69.333 0-121.333-18.167-156-54.5s-52-79.5-52-129.5c0-54.667 22.667-102.667 68-144s114.333-62 207-62h36v375z"/><glyph glyph-name="afii10071" unicode="ё" horiz-adv-x="897" d="M308 1412c30 0 55.665-10.669 76.998-32.002s32-46.666 32-75.999c0-30.667-10.667-56.5-32-77.5s-47-31.5-77-31.5c-29.333 0-54.666 10.5-75.999 31.5s-32 46.833-32 77.5 10.833 56.334 32.5 77.001 46.834 31 75.501 31zm351.998-2c30.667 0 56.501-10.501 77.501-31.501s31.5-46.5 31.5-76.5c0-29.333-10.5-54.666-31.5-75.999s-46.833-32-77.5-32c-30 0-55.5 10.667-76.5 32s-31.5 46.666-31.5 75.999c0 30.667 10.667 56.334 32 77.001s46.666 31 75.999 31zM846.999 333.997c-22-112.667-68.169-201.166-138.502-265.499s-151.5-96.5-243.5-96.5c-110 0-204.333 42.833-283 128.5s-118 206.5-118 362.5c0 151.333 38.333 274 115 368s179.334 141 308.001 141c108.667 0 195.834-35.5 261.501-106.5s98.5-161.833 98.5-272.5h-643c-.667-16.667-1-29.334-1-38.001 0-102 31-198 93-288s144-135 246-135c131.333 0 222.333 73 273 219zM634.997 655.998c-2 78-21.833 138-59.5 180s-85.5 63-143.5 63c-58.667 0-109-22-151-66s-66.333-103-73-177h427z"/><glyph glyph-name="afii10099" unicode="ђ" horiz-adv-x="1010" d="m364 1191 430.004-.001v-62h-430v-363c44.667 68.667 89.667 120.167 135 154.5s91.333 51.5 138 51.5c79.333 0 146.666-45.667 201.999-137s83-241.666 83-450.999c0-172.667-23.833-324.667-71.5-456S740.669-296.5 664.002-351.5s-148.667-82.5-216-82.5c-6 0-17.333.667-34 2v38c67.333 10.667 125.333 38.5 174 83.5s84.167 110.667 106.5 197 33.5 239.833 33.5 460.5c0 138.667-4.167 240-12.5 304s-27 112.667-56 146-61.833 50-98.5 50c-31.333 0-63.5-11.667-96.5-35s-66.5-58.333-100.5-105V226c0-80 11.667-131.5 35-154.5S465.668 37 529.001 37V0h-479v37c56 .667 94.833 13.5 116.5 38.5s32.5 75.167 32.5 150.5v903h-160v62h160c-1.333 87.333-31.333 131-90 131-16.667 0-36.334-3.667-59.001-11l-11 35 287 123h38v-278z"/><glyph glyph-name="afii10100" unicode="ѓ" horiz-adv-x="907" d="m306 1125 106 344h228l-299-344h-35zM52 0l-.001 37c65.333 0 108.333 13.5 129 40.5s31 71.5 31 133.5v572c0 44.667-8.333 77.5-25 98.5s-61.667 31.5-135 31.5v37h791l37-253h-43c-17.333 76.667-37.333 127-60 151s-61.667 36-117 36h-283V230c0-79.333 11.833-131.333 35.5-156S482.333 37 551 37V0H52z"/><glyph glyph-name="afii10101" unicode="є" horiz-adv-x="911" d="M256 534h312.999v-63h-313c1.333-142 24.833-248.5 70.5-319.5S440.333 45 531 45c111.333 0 213 54.333 305 163l31-23C761 43 637.333-28 496-28c-120.667 0-222.834 48.5-306.501 145.5S63.999 340 63.999 494c0 150.667 42.833 268 128.5 352s184.5 126 296.5 126c52.667 0 107.334-10 164.001-30 34.667-12 60.667-18 78-18 18 0 33.333 5 46 15h18V660h-37c-12.667 84.667-44.167 147-94.5 187S558 907 498 907c-78 0-137.167-31-177.5-93S258.667 658.667 256 534z"/><glyph glyph-name="afii10102" unicode="ѕ" horiz-adv-x="789" d="M635 950V660.998h-37c-9.333 71.333-35.5 131.5-78.5 180.5s-94.167 73.5-153.5 73.5c-48 0-87.5-12-118.5-36s-46.5-52-46.5-84c0-44 15.333-81.333 46-112 30.667-31.333 81-64 151-98 115.333-56 195.333-107.667 240-155 44.667-48 67-106.333 67-175 0-91.333-33.5-161.333-100.5-210s-135.5-73-205.5-73c-43.333 0-97.333 9.667-162 29-32.667 9.333-55 14-67 14-14.667 0-27.334-5-38.001-15h-42v320h35c14-96 47.5-167.667 100.5-215s111.167-71 174.5-71c41.333 0 78.166 13.667 110.499 41s48.5 60.333 48.5 99c0 46.667-15.667 86.667-47 120-32 32.667-100.333 78.334-205 137.001-102 56.667-164.667 105.334-188 146.001-23.333 40-35 81.667-35 125 0 78 27.167 142.5 81.5 193.5s121.833 76.5 202.5 76.5c32.667 0 71.334-6.333 116.001-19 34.667-10 59-15 73-15 16.667 0 30.334 4 41.001 12h37z"/><glyph glyph-name="afii10103" unicode="і" horiz-adv-x="555" d="M281 1474c28.667 0 53.334-10.169 74.001-30.502s31-45.166 31-74.499c0-30-10.333-55.167-31-75.5s-45.334-30.5-74.001-30.5c-29.333 0-54.333 10.333-75 31s-31 45.667-31 75c0 28.667 10.333 53.334 31 74.001s45.667 31 75 31zM48 864.998l283.999 107h35v-745c0-74.667 10.167-124 30.5-148s57.5-38 111.5-42v-37h-461v37c50.667 1.333 89.834 11.833 117.501 31.5s41.5 72.5 41.5 158.5v453c0 56-7.5 96.333-22.5 121s-41.5 37-79.5 37c-16 0-31.333-3.333-46-10z"/><glyph glyph-name="afii10104" unicode="ї" horiz-adv-x="555" d="M105 1412c28.667 0 53.832-10.331 75.499-30.998s32.5-46.334 32.5-77.001-10.667-56.5-32-77.5-46.666-31.5-75.999-31.5-54.666 10.667-75.999 32-32 47-32 77c0 29.333 10.667 54.666 32 75.999s46.666 32 75.999 32zm351.998-2c30 0 55.5-10.333 76.5-31s31.5-46.334 31.5-77.001c0-29.333-10.5-54.666-31.5-75.999s-46.5-32-76.5-32c-29.333 0-54.666 10.667-75.999 32s-32 46.666-32 75.999c0 30.667 10.667 56.334 32 77.001s46.666 31 75.999 31zm-409-544.998 284 107h35v-745c0-74.667 10.333-124 31-148s58-38 112-42v-37h-462v37c51.333 1.333 90.833 11.833 118.5 31.5s41.5 72.5 41.5 158.5v453c0 56-7.5 96.333-22.5 121s-41.833 37-80.5 37c-14.667 0-30-3.333-46-10z"/><glyph glyph-name="afii10105" unicode="ј" horiz-adv-x="555" d="M301 1475c28.667 0 53.5-10.333 74.5-31s31.5-45.667 31.5-75-10.5-54.333-31.5-75-45.833-31-74.5-31-53.5 10.333-74.5 31-31.5 45.667-31.5 75 10.5 54.333 31.5 75 45.833 31 74.5 31zM60 868l298.003 104h35V48c0-160.667-30.167-281.167-90.5-361.5S151.67-434 31.003-434c-48.667 0-90.834 9.333-126.501 28s-53.5 43.667-53.5 75c0 22.667 8.667 42.5 26 59.5s37.333 25.5 60 25.5c33.333 0 68-16.333 104-49 41.333-38 71.666-57 90.999-57 39.333 0 65 18.667 77 56s18 121.333 18 252v721c0 110.667-31.333 166-94 166-16.667 0-37.334-3.667-62.001-11z"/><glyph glyph-name="afii1016" unicode="љ" horiz-adv-x="1567" d="m1085 950 .002-36.999c-48 0-85.667-9.833-113-29.5s-41-68.834-41-147.501V539h143c142 0 247.667-20.667 317-62s104-106 104-194c0-59.333-20.667-113-62-161s-89.333-80.333-144-97-136.334-25-245.001-25h-437v37c62 0 104 11.667 126 35s33 62.333 33 117v695h-347V371c0-128.667-21-225.167-63-289.5s-105-96.5-189-96.5C113.668-15 73.835-3 47.502 21s-39.5 49.667-39.5 77c0 21.333 7.667 39.833 23 55.5S65.668 177 89.001 177c28 0 57.667-14 89-42 28-24 52.333-36 73-36 33.333 0 58.666 20.167 75.999 60.5s26 118.833 26 235.5v364c0 57.333-11.667 97.333-35 120s-62 34-116 34v37h883zM931.002 83.001c44-12 88.667-17.999 134-17.999 64 0 119.5 19 166.5 57s70.5 89.333 70.5 154c0 71.333-22.5 122.166-67.5 152.499s-113.833 45.5-206.5 45.5h-97v-391z"/><glyph glyph-name="afii10107" unicode="њ" horiz-adv-x="1579" d="m369 539 409 .001v224c0 54-11.333 92.5-34 115.5s-64.667 34.5-126 34.5v37h479v-37c-58 0-98.167-13-120.5-39s-33.5-72-33.5-138v-197h143c142 0 247.667-20.667 317-62s104-106 104-194c0-70.667-31.667-135.5-95-194.5s-174-88.5-332-88.5H618v37c63.333 0 105.833 11.833 127.5 35.5s32.5 62.5 32.5 116.5v285H369v-295c0-52 11.5-88.667 34.5-110s63.167-32 120.5-32v-37H50v37c54.667 0 94.167 10.833 118.5 32.5s36.5 58.167 36.5 109.5v571c0 58.667-11.167 100.167-33.5 124.5S108.667 911.667 50 913v37h474v-37c-51.333 0-90-9.833-116-29.5s-39-64.167-39-133.5V539zM943 83.001C991.667 71.668 1034.667 66 1072 66c69.333 0 127 19 173 57s69 89 69 153c0 70.667-22.5 121.334-67.5 152.001s-113.833 46-206.5 46h-97v-391z"/><glyph glyph-name="afii10108" unicode="ћ" horiz-adv-x="1118" d="M199 1191c-1.333 87.333-31.003 130.998-89.003 130.998-17.333 0-36.333-3.667-57-11l-11 35 284 123h38v-278h449v-62h-449v-356c45.333 62 97.833 110.667 157.5 146s114.834 53 165.501 53c55.333 0 103.333-17.167 144-51.5s67-77.166 79-128.499 18-123.333 18-216v-350c0-78.667 11.333-129.834 34-153.501s62.334-35.5 119.001-35.5v-37H613v37c69.333.667 111.833 16 127.5 46s23.5 77.667 23.5 143v392c0 57.333-3.333 99.333-10 126s-24 50.834-52 72.501-60.333 32.5-97 32.5-75.167-10.5-115.5-31.5-82.166-52.833-125.499-95.5v-496c0-80 11.5-131.5 34.5-154.5s65.5-34.5 127.5-34.5v-37H53v37c54.667.667 92.667 13.334 114 38.001s32 75 32 151v903H53v62h146z"/><glyph glyph-name="afii10109" unicode="ќ" horiz-adv-x="1075" d="m468 1125 106 344h227l-298-344h-35zM56 950l469.001.002v-37c-55.333 0-94-12.833-116-38.5s-33-68.167-33-127.5v-211c18-.667 31.333-1 40-1 103.333 0 175.333 64.667 216 194 49.333 154.667 125.333 232 228 232 41.333 0 72.833-10.167 94.5-30.5s32.5-42.166 32.5-65.499c0-22-8.333-41.833-25-59.5s-39.667-26.5-69-26.5c-13.333 0-29 3.333-47 10-28.667 10.667-51 16-67 16-23.333 0-41.5-7-54.5-21s-25.833-43.667-38.5-89c-24-81.333-59.333-138-106-170 49.333-15.333 102.666-73.333 159.999-174 3.333-6 7-12 11-18l106-169c36-56.667 66.667-91.834 92-105.501s52-20.834 80-21.501v-37H764l-253 406c-30 48.667-60.667 73-92 73-10 0-24.333-1.667-43-5v-287c0-99.333 49.667-149.333 149-150v-37H56v37c58 2 98.333 14.167 121 36.5S211 133.667 211 187v560c0 66.667-12.167 111-36.5 133S110.667 913 56 913v37z"/><glyph glyph-name="afii10110" unicode="ў" d="M218 1318c0 49.333 23.998 73.999 71.998 73.999 42.667 0 81-39 115-117 29.333-69.333 76.333-104 141-104 42 0 73.667 9.333 95 28 20.667 18 40.334 49.333 59.001 94 26.667 66 60.667 99 102 99 48.667 0 73-26.333 73-79s-32.167-100-96.5-142-137.166-63-218.499-63c-102 0-184.5 19.333-247.5 58S218 1255.333 218 1318zM33.998 949.999l424.003.001v-37c-40.667-1.333-69.334-7.5-86.001-18.5s-25-29.167-25-54.5c0-27.333 6.333-55.333 19-84l232-518 159 433c39.333 105.333 59 165.666 59 180.999 0 36.667-31.667 57-95 61v37h271v-37c-30.667-4.667-54-19.167-70-43.5s-44.667-90.5-86-198.5l-258-699c-58.667-159.333-116.834-266.833-174.501-322.5s-121.834-83.5-192.501-83.5c-40 0-72.833 10.333-98.5 31s-38.5 47.334-38.5 80.001c0 28 10 50.833 30 68.5s45.667 26.5 77 26.5c20 0 51.333-9 94-27 18.667-7.333 34.334-11 47.001-11 59.333 0 114.666 68 165.999 204l31 83-329 735c-46 101.333-98 153.666-156 156.999v37z"/><glyph glyph-name="afii10193" unicode="џ" horiz-adv-x="1131" d="M584-254h-37.001c-12 169.333-93 254-243 254h-246v37c55.333 1.333 93.333 14.5 114 39.5s31 69.833 31 134.5v528c0 66-10.667 111.167-32 135.5s-59 37.166-113 38.499v37h454v-37c-54.667-1.333-92.334-14.5-113.001-39.5s-31-69.833-31-134.5v-589c0-44 7.167-69 21.5-75s42.833-9 85.5-9h202c39.333 0 63.5 5 72.5 15s13.5 35 13.5 75v583c0 66-10.667 111.333-32 136s-59 37.334-113 38.001v37h454v-37c-55.333-1.333-93.166-14.5-113.499-39.5s-30.5-69.833-30.5-134.5V201c0-64.667 10.333-108.167 31-130.5S1017.333 37 1072 37V0H826C676.667 0 596-84.667 584-254z"/><glyph glyph-name="afii10050" unicode="Ґ" horiz-adv-x="1067" d="M65 1406h561c84.667 0 145.5 5.167 182.5 15.5s69 32 96 65S950 1567 960 1629h38v-310H489V215c0-64 14.333-109.333 43-136s82.667-40.667 162-42V0H65v37c66.667 0 110.834 7.5 132.501 22.5s38.5 30 50.5 45 18 51.833 18 110.5v983c0 63.333-14.333 107.333-43 132S141.667 1367.667 65 1369v37z"/><glyph glyph-name="afii10098" unicode="ґ" horiz-adv-x="768" d="M722 1153V884.001H380v-683c0-66 11.167-109.833 33.5-131.5s63.5-32.5 123.5-32.5v-37H53v37c61.333 0 103.333 13.167 126 39.5S213 151.667 213 223v548c0 56.667-9.5 94.5-28.5 113.5S121.667 913 53 913v37h379c81.333 0 141.333 14.5 180 43.5s63 82.167 73 159.5h37z"/><glyph glyph-name="endash" unicode="–" d="M-7 508h1039v-65H-7v65z"/><glyph glyph-name="emdash" unicode="—" horiz-adv-x="2048" d="M-7 508h2063v-65H-7v65z"/><glyph glyph-name="quoteleft" unicode="‘" horiz-adv-x="555" d="M425 1432c-149.333-58.667-223.999-146.333-223.999-263 0-14 2.667-24.5 8-31.5s13-10.5 23-10.5c5.333 0 14.666 3 27.999 9 22 10.667 40.667 16 56 16 30 0 55.667-10.667 77-32s32-46.333 32-75c0-33.333-12.833-61.5-38.5-84.5S330.333 926 295 926c-51.333 0-92 20.167-122 60.5s-45 88.833-45 145.5c0 154.667 99 267 297 337v-37z"/><glyph glyph-name="quoteright" unicode="’" horiz-adv-x="555" d="M128 930c149.333 58 223.999 145.669 223.999 263.002 0 14-2.5 24.333-7.5 31s-12.833 10-23.5 10c-4.667 0-13.667-3-27-9-22.667-10-41.667-15-57-15-29.333 0-54.666 10.667-75.999 32s-32 46.666-32 75.999c0 33.333 12.5 61.666 37.5 84.999s55.5 35 91.5 35c51.333 0 92-20.333 122-61s45-89.667 45-147c0-156.667-99-270-297-340v40z"/><glyph glyph-name="quotesinglbase" unicode="‚" horiz-adv-x="682" d="m241-316-.002 41.999c50.667 28 90.667 57.167 120 87.5s44 71.833 44 124.5c0 36.667-11 55-33 55-7.333 0-17.666-2.333-30.999-7-16-6-31.333-9-46-9-25.333 0-48.666 9.5-69.999 28.5s-32 43.833-32 74.5c0 35.333 14 64.166 42 86.499s58 33.5 90 33.5c44.667 0 84.667-19.167 120-57.5s53-86.166 53-143.499c0-68-22.667-132.167-68-192.5S321.667-294.667 241-316z"/><glyph glyph-name="quotedblleft" unicode="“" d="M425 1433c-149.333-58.667-223.999-146.667-223.999-264 0-13.333 2.667-23.5 8-30.5s13-10.5 23-10.5c5.333 0 14.666 3 27.999 9 22 10 40.667 15 56 15 29.333 0 54.833-10.5 76.5-31.5s32.5-46.167 32.5-75.5c0-33.333-12.833-61.5-38.5-84.5S330.333 926 295 926c-51.333 0-92 20.167-122 60.5s-45 88.833-45 145.5c0 156.667 99 269 297 337v-36zm468.001 0c-149.333-58-224-146-224-264 0-13.333 2.667-23.5 8-30.5s13-10.5 23-10.5c4.667 0 13.667 3 27 9 22.667 10 41.667 15 57 15 29.333 0 54.666-10.667 75.999-32s32-46.333 32-75c0-33.333-12.5-61.5-37.5-84.5S799 926 763 926c-51.333 0-92.166 20.167-122.499 60.5s-45.5 88.833-45.5 145.5c0 156.667 99.333 269 298 337v-36z"/><glyph glyph-name="quotedblright" unicode="”" d="M601 930c149.333 58 223.999 145.669 223.999 263.002 0 14-2.5 24.333-7.5 31s-12.833 10-23.5 10c-5.333 0-14.666-3-27.999-9-22-10-40.667-15-56-15-29.333 0-54.833 10.667-76.5 32s-32.5 46.666-32.5 75.999c0 33.333 12.667 61.666 38 84.999s56 35 92 35c47.333 0 87-19.333 119-58s48-88.667 48-150c0-156.667-99-270-297-340v40zm-477.001.002c149.333 58 223.999 145.669 223.999 263.002 0 14-2.5 24.333-7.5 31s-12.833 10-23.5 10c-4.667 0-13.667-3-27-9-22.667-10-41.667-15-57-15-29.333 0-54.666 10.667-75.999 32s-32 46.666-32 75.999c0 33.333 12.5 61.666 37.5 84.999s55.5 35 91.5 35c51.333 0 92-20.333 122-61s45-89.667 45-147c0-156.667-99-270-297-340v40z"/><glyph glyph-name="quotedblbase" unicode="„" d="M587-303c149.333 58.667 224 146.001 224 262.001 0 14-2.5 24.333-7.5 31s-12.833 10-23.5 10c-5.333 0-14.333-3.333-27-10-22-12-40.667-18-56-18-30 0-55.667 10.833-77 32.5s-32 47.5-32 77.5c0 34 12.667 62.833 38 86.5s56 35.5 92 35.5c50 0 90.167-20.333 120.5-61S884 53.667 884-3c0-157.333-99-270.333-297-339v39zm-449 .001c149.333 58.667 224 146.001 224 262.001 0 14-2.5 24.333-7.5 31s-12.833 10-23.5 10c-5.333 0-14.333-3.333-27-10-22-12-40.667-18-56-18-30 0-55.667 10.833-77 32.5s-32 47.5-32 77.5c0 34 12.667 62.833 38 86.5s56 35.5 92 35.5c50.667 0 91-20.333 121-61s45-89.334 45-146.001c0-157.333-99-270.333-297-339v39z"/><glyph glyph-name="dagger" unicode="†" d="M491 972c0 34.667-14.666 90.672-43.999 168.005-30.667 82.667-46 144.334-46 185.001 0 33.333 11.333 63 34 89s47.667 39 75 39c30 0 56-13.833 78-41.5s33-58.167 33-91.5c0-40-17-101.333-51-184l-32-81c-6.667-16.667-10-44.334-10-83.001 48 1.333 109 17.666 183 48.999 46.667 20 86.667 30 120 30 24 0 45.833-9.833 65.5-29.5s29.5-43.167 29.5-70.5c0-28.667-10.333-52.334-31-71.001s-43-28-67-28c-34.667 0-74.334 9.333-119.001 28-76.667 31.333-137 48.666-181 51.999 2.667-102.667 35.667-182.667 99-240-66-237.333-99-607.333-99-1110h-37c-3.333 520-37.666 890-102.999 1110 68.667 55.333 103 135.333 103 240-36.667-2.667-99.667-21.334-189-56.001-38.667-14.667-74-22-106-22-26 0-48.667 9.5-68 28.5s-29 42.5-29 70.5c0 27.333 9.833 50.5 29.5 69.5s42.5 28.5 68.5 28.5c30 0 63.667-7.667 101-23C387.334 991.334 451.667 972.667 491 972z"/><glyph glyph-name="doubledagger" unicode="‡" d="M494 1057c-.667 30.667-3.333 54.83-8 72.497s-21 60.834-49 129.501c-16 40.667-24 78.667-24 114 0 26.667 10 50.667 30 72s43.667 32 71 32c29.333 0 53.166-11.333 71.499-34s27.5-47.667 27.5-75c0-34-14.333-86.333-43-157-24-60-36.667-111.333-38-154h9c27.333 0 79.666 15.667 156.999 47 37.333 15.333 71.333 23 102 23 23.333 0 43.666-8.833 60.999-26.5s26-38.834 26-63.5c0-26.668-8.5-48-25.5-64s-36.833-24-59.5-24c-32.667 0-68 8-106 24-70 30.666-124.667 46-164 46 3.333-74.668 35.333-133.668 96-177-64-72.668-96-184-96-334 0-134 32-238.668 96-314-56-39.334-88-97-96-173 32 0 89.333 16.332 172 49 34.667 14 66.334 21 95.001 21 21.333 0 41.333-8.834 60-26.5s28-39.5 28-65.5c0-25.334-9.333-46.5-28-63.5s-38.667-25.5-60-25.5c-27.333 0-59 7.666-95 23-76 32.666-133.333 49-172 49 .667-46.668 18-108.668 52-186 21.333-48.668 32-92 32-130 0-23.334-9.667-45.834-29-67.5s-43.333-32.5-72-32.5c-28 0-52.333 11-73 33s-31 46.666-31 74c0 34 9.667 74 29 120 36 82.666 54 145.666 54 189-36.667 0-81.667-11-135-33-63.333-26-107.333-39-132-39-21.333 0-41.5 8.666-60.5 26s-28.5 39-28.5 65 9.5 47.5 28.5 64.5 41.833 25.5 68.5 25.5c26 0 64-11 114-33 54-24 102.333-36.334 145-37-8 76.666-39.667 134.333-95 173 63.333 84.667 95 196.334 95 335.001 0 140.667-31.667 245-95 313 59.333 44.667 91 103.667 95 177-36.667 0-85-12.667-145-38-51.333-21.333-89.666-32-114.999-32-27.333 0-50.166 8.667-68.499 26s-27.5 39-27.5 65c0 24.667 8.667 45.334 26 62.001s38.666 25 63.999 25c28 0 70-11.333 126-34 60.667-25.333 107.334-37.333 140.001-36z"/><glyph glyph-name="bullet" unicode="•" horiz-adv-x="725" d="M109 703c0 67.333 24.167 126.5 72.5 177.5S290 957 362 957c70.667 0 130.667-24.833 180-74.5S616 773 616 703s-24.833-129.833-74.5-179.5S432 449 362 449c-72 0-132.167 25.333-180.5 76S109 635 109 703z"/><glyph glyph-name="ellipsis" unicode="…" horiz-adv-x="2048" d="M1707 202c30.667 0 57.332-11 79.999-33s34-49.333 34-82c0-31.333-11.167-58.333-33.5-81S1738.333-28 1707-28s-58.333 11.333-81 34-34 49.667-34 81c0 32 11.333 59.167 34 81.5s49.667 33.5 81 33.5zm-1365.002 0c30.667 0 57.33-11 79.997-33s34-49.333 34-82c0-31.333-11.167-58.333-33.5-81s-49.166-34-80.499-34-58.166 11.333-80.499 34-33.5 49.667-33.5 81c0 32.667 11.333 60 34 82s49.334 33 80.001 33zm681.992 0c30.667 0 57.168-11 79.501-33s33.5-49.333 33.5-82c0-31.333-11-58.333-33-81s-48.667-34-80-34c-32 0-59 11.167-81 33.5s-33 49.5-33 81.5c0 32.667 11.167 60 33.5 82s49.166 33 80.499 33z"/><glyph glyph-name="perthousand" unicode="‰" horiz-adv-x="2048" d="M1114 1436h88L223-57h-88zM19 1071c0 103.333 26 188.832 78 256.499s114.333 101.5 187 101.5c74 0 137.333-33.5 190-100.5s79-153.833 79-260.5c0-109.333-26.333-197.666-79-264.999S360 702 290 702c-76.667 0-141 34.5-193 103.5S19 963 19 1071zm119-2c0-222.667 50-334 150-334 98 0 147 108 147 324 0 227.333-50.333 341-151 341-97.333 0-146-110.333-146-331zm672-712.001c0 110 27.333 197.001 82 261.001s116 96 184 96c67.333 0 128.833-31.5 184.5-94.5S1344 468 1344 354c0-118-28-208.5-84-271.5S1144.333-12 1081-12c-77.333 0-141.833 34.667-193.5 104S810 249.666 810 356.999zM929 356c0-223.333 50-335 150-335 98 0 147 108 147 324 0 226.667-50 340-150 340-98 0-147-109.667-147-329zm567 1c0 110 27.167 196.998 81.5 260.998s115.5 96 183.5 96c74.667 0 138.167-33.667 190.5-101s78.5-153.666 78.5-258.999c0-118-28-208.5-84-271.5s-116-94.5-180-94.5c-68 0-130 31.833-186 95.5S1496 238.333 1496 357zm118-1.002c0-223.333 50-335 150-335 98 0 147 108 147 324 0 226.667-50 340-150 340-98 0-147-109.667-147-329z"/><glyph glyph-name="guilsinglleft" unicode="‹" horiz-adv-x="555" d="M450 992h58L262 518 508 37h-58L53 518z"/><glyph glyph-name="guillsinglright" unicode="›" horiz-adv-x="555" d="M106 37H47l246 479L47 992h59l396-476z"/><glyph glyph-name="afii61352" unicode="№" horiz-adv-x="2048" d="m533 1406 600.002-948.002v615c0 91.333 7.667 158.333 23 201s44 78 86 106 90 42 144 42c51.333 0 92.166-12.167 122.499-36.5s45.5-54.166 45.5-89.499c0-26-10.333-49.667-31-71s-48.667-32-84-32c-27.333 0-55 8.333-83 25-28.667 18-52.334 27-71.001 27-28 0-45.667-8.833-53-26.5s-11-67.834-11-150.501v-1099h-40l-740 1169v-828c0-113.333-21.667-198.5-65-255.5s-108.666-85.5-195.999-85.5c-50.667 0-90.5 13-119.5 39s-43.5 54.667-43.5 86c0 29.333 10.167 53.833 30.5 73.5s47.166 29.5 80.499 29.5c34 0 69.667-10.333 107-31 23.333-12.667 41-19 53-19 28 0 45.833 12.833 53.5 38.5S353 273.332 353 371.999v805c0 84.667-15.5 137.834-46.5 159.501S227.333 1369 162 1369v37h371zm802-750.002c0 92.667 29.167 173.833 87.5 243.5s137.833 104.5 238.5 104.5c91.333 0 172.166-30.5 242.499-91.5s105.5-142.5 105.5-244.5c0-100-31.167-183.333-93.5-250s-139.166-100-230.499-100c-93.333 0-175 32-245 96s-105 144.667-105 242zm152 83.999c0-108 22.834-196.833 68.501-266.5s96.834-104.5 153.501-104.5c43.333 0 80.166 16.667 110.499 50s45.5 78.333 45.5 135c0 91.333-18.5 180.333-55.5 267s-90.5 130-160.5 130c-46.667 0-85.334-18-116.001-54s-46-88.333-46-157zm-85-614h521v-126h-521v126z"/><glyph glyph-name="trademark" unicode="™" horiz-adv-x="2005" d="m50 1406 727.998.001 22-201h-34c-3.333 33.333-17.166 65.166-41.499 95.499S649.333 1346 572 1346h-75V766c0-55.333 6.667-90.5 20-105.5s42-23.5 86-25.5v-36H229v36c36.667 2.667 62.5 9.334 77.5 20.001s22.5 47.667 22.5 111v580h-76c-60 0-104.333-9.833-133-29.5S72.333 1259.667 63 1205H29zm1105 0 272.997-571.999 265 572h279v-37c-47.333-1.333-77.666-9.833-90.999-25.5s-20-51.834-20-108.501V766c0-56.667 6.333-92 19-106s43.334-22.333 92.001-25v-36h-398v36c49.333 1.333 81.5 10 96.5 26s22.5 51 22.5 105v492l-307-659h-32l-308 649V766c0-51.333 5.833-86 17.5-104s36.834-27 75.501-27h36v-36H869v36c46.667 0 77.167 7.833 91.5 23.5S982 710 982 766v466c0 59.333-6.5 97-19.5 113s-44.167 24-93.5 24v37h286z"/><glyph glyph-name="glyph1" horiz-adv-x="0"/><glyph glyph-name="glyph2" horiz-adv-x="512"/></font>
</defs>
</svg>
