<svg xmlns="http://www.w3.org/2000/svg" width="256" height="256" viewBox="0 0 100 100"><rect width="100" height="100" rx="50" fill="#f3c563"></rect><path fill="#494948" d="M21.99 77Q19.74 77 18.39 75.80Q17.04 74.60 17.04 72.50L17.04 72.50L17.04 41.60Q17.04 32.90 21.99 27.95Q26.94 23 35.64 23L35.64 23Q39.84 23 43.55 25.06Q47.26 27.13 49.96 30.95L49.96 30.95Q52.59 27.05 56.30 25.02Q60.01 23 64.36 23L64.36 23Q73.06 23 78.01 27.95Q82.96 32.90 82.96 41.60L82.96 41.60L82.96 72.50Q82.96 74.53 81.58 75.76Q80.19 77 77.94 77L77.94 77Q75.69 77 74.34 75.80Q72.99 74.60 72.99 72.50L72.99 72.50L72.99 41.60Q72.99 35.90 70.89 33.39Q68.79 30.88 63.99 30.88L63.99 30.88Q59.64 30.88 57.28 33.65Q54.91 36.43 54.91 41.60L54.91 41.60L54.91 72.50Q54.91 74.60 53.56 75.80Q52.21 77 49.96 77L49.96 77Q47.71 77 46.40 75.80Q45.09 74.60 45.09 72.50L45.09 72.50L45.09 41.60Q45.09 36.58 42.69 33.73Q40.29 30.88 36.01 30.88L36.01 30.88Q31.21 30.88 29.11 33.39Q27.01 35.90 27.01 41.60L27.01 41.60L27.01 72.50Q27.01 74.53 25.63 75.76Q24.24 77 21.99 77L21.99 77Z"></path></svg>